<?xml version="1.0" encoding="utf-8" ?><svg xmlns="http://www.w3.org/2000/svg" xmlns:xlink="http://www.w3.org/1999/xlink" width="1024" height="1024" viewBox="0 0 1024 1024"><path fill="#F80E1E" d="M929.561 864.584L941.799 864.649C941.743 869.038 941.773 873.175 940.823 877.477C938.513 887.647 932.206 896.459 923.325 901.927C914.351 907.445 903.553 909.174 893.304 906.735C880.665 903.64 873.258 896.218 866.818 885.481C863.018 892.761 858.051 898.589 850.847 902.721C841.803 907.88 831.059 909.171 821.05 906.302C809.569 903.062 802.001 895.382 796.256 885.264C783.356 907.79 759.726 915.382 736.953 899.793C731.86 896.307 728.023 890.514 725.274 885.03C716.046 901.514 703.42 910.002 683.496 907.224C669.807 905.316 661.666 896.687 653.924 885.849C640.796 910.544 611.687 915.483 590.903 895.713C587.93 892.885 585.645 889.14 583.382 885.715C567.328 915.7 528.632 914.937 512.598 885.135C509.314 892.358 503.889 898.397 497.058 902.433C488.138 907.676 477.499 909.155 467.487 906.542C454.713 903.201 448.452 896.28 442.122 885.356C438.633 891.844 433.281 898.758 426.719 902.238C403.932 914.323 382.894 906.064 370.727 885.015C367.888 891.59 363.204 897.201 357.243 901.169C348.744 906.998 338.24 909.117 328.146 907.04C314.224 904.161 307.102 896.395 299.734 885.089C288.217 910.435 255.73 915.553 236.306 895.566C233.343 892.517 231.342 889.35 229.025 885.785C227.699 887.885 226.428 889.92 224.977 891.961C210.835 911.855 180.905 912.77 164.841 894.73C161.957 891.492 160.202 888.793 157.824 885.012C146.636 910.688 113.026 915.32 94.1317 895.523C85.3374 886.308 83.3458 877.289 83.4948 864.962L95.4449 864.986C96.4721 874.681 97.9291 879.85 104.868 887.188C109.428 891.26 114.907 893.676 121.01 893.934C138.821 894.687 148.503 882.141 149.696 866.01L166.319 865.955C167.084 871.728 168.946 878.116 172.269 882.951C176.095 888.572 182.021 892.419 188.712 893.627C195.836 895.015 203.217 893.442 209.157 889.273C217.842 883.076 219.599 875.396 221.214 865.741C225.623 866.095 233.033 865.95 237.335 865.723C241.917 904.113 287.873 903.671 291.794 865.977C297.154 866.007 302.699 865.828 308.072 865.726C308.974 871.572 310.876 878.127 314.24 883.064C318.196 888.9 324.374 892.856 331.33 894.006C338.539 895.201 345.92 893.343 351.704 888.877C359.621 882.827 361.669 875.172 363.042 865.99L379.4 865.89C379.836 872.642 381.472 878.85 385.714 884.254C390.174 889.904 396.8 893.424 403.978 893.957C422.034 895.47 432.178 882.18 433.64 865.742C439.219 865.851 444.585 865.719 450.159 865.591C450.88 872.71 452.355 878.293 456.727 884.211C465.04 895.465 483.197 897.311 493.827 888.335C500.742 882.494 503.496 874.793 504.195 865.956L521.174 865.914C523.345 888.566 542.234 902.41 563.988 889.009C571.623 884.306 574.233 874.649 575.548 866.084L591.921 865.979C592.835 873.093 594.065 878.675 598.746 884.448C603.092 889.919 609.497 893.361 616.458 893.968C634.333 895.601 644.763 882.291 646.118 865.954L662.75 865.897C663.634 872.807 664.793 878.312 669.182 884.016C673.361 889.492 679.596 893.023 686.442 893.79C705.022 895.953 715.482 883.067 717.158 865.957L733.199 865.981C734.166 872.535 735.672 879.058 739.88 884.406C748.823 895.771 767.059 897.486 777.998 888.03C784.622 882.305 787.397 874.484 788.145 865.97L804.39 865.876C805.157 872.799 806.237 877.035 810.114 882.868C820.916 899.122 846.561 897.276 855.113 879.824C857.491 874.971 858.179 871.049 858.984 865.737C864.444 865.81 869.904 865.774 875.362 865.631C875.841 872.598 877.592 879.292 882.1 884.779C886.483 890.123 892.852 893.454 899.742 894.007C918.782 895.587 928.32 881.841 929.561 864.584Z"/><path fill="#F80E1E" d="M171.581 335.75C219.958 336.031 268.338 335.95 316.714 335.508L319.579 342.14L176.654 342.052L132.283 342.008C123.76 342.004 113.086 341.321 104.853 342.642C86.141 345.642 83.924 362.361 84.446 377.382C85.2243 399.778 83.5844 421.973 85.1708 444.189C85.9783 455.496 97.0099 465.074 108.07 464.972C123.309 465.179 139.067 465.106 154.539 465.116L245.112 465.133L515.636 465.073L784.462 465.088L872.198 465.054C887.288 465.045 902.673 465.172 917.759 464.851C922.672 464.747 929.128 462.051 932.685 458.611C939.418 452.1 940.72 444.834 940.801 435.886C940.941 420.615 940.847 405.494 940.739 390.19C940.471 380.808 941.303 370.884 940.019 361.613C938.927 353.733 930.153 344.14 922.242 343.068C911.205 341.573 899.096 342.25 887.907 342.263L829.191 342.1L705.894 342.123C706.591 339.851 707.426 337.858 708.308 335.66C724.606 336.221 743.335 335.786 759.765 335.786L863.771 335.688L898.329 335.679C909.219 335.615 920.761 334.242 930.626 339.428C941.268 344.959 946.993 356.12 946.973 367.916C946.934 390.529 947.003 413.195 946.979 435.814C946.975 439.986 946.952 444.332 946.04 448.448C943.157 461.46 930.578 471.436 917.343 471.574C894.929 471.627 872.647 471.573 850.299 471.566L717.276 471.52L369.633 471.562L189.322 471.544L133.408 471.544C124.098 471.543 114.219 471.708 104.961 471.3C98.324 470.827 91.8775 467.042 87.17 462.613C75.8032 451.917 78.3372 435.195 78.3176 420.753L78.098 390.968C77.9971 373.401 74.9316 353.851 90.4041 342.062C101.479 333.623 117.399 335.812 130.492 335.859L171.581 335.75Z"/><path fill="#F80E1E" d="M511.572 110.233C598.505 111.548 664.167 179.156 663.509 266.43C663.172 311.27 644.227 346.489 612.676 377.373L607.826 372.509C609.539 370.996 611.226 369.454 612.887 367.885C640.745 341.163 656.752 304.405 657.342 265.808C659.071 184.677 594.21 117.75 512.929 116.301C431.361 116.878 368.275 181.036 366.954 262.213C366.53 295.16 377.481 327.246 397.959 353.059C403.422 359.99 410.226 366.74 416.423 373.121L412.248 377.648C404.649 369.99 397.185 362.355 390.652 353.806C333.633 279.195 361.025 168.579 444.193 126.347C466.574 114.982 486.357 110.978 511.572 110.233Z"/><path fill="#F80E1E" d="M589.115 739.677C596.374 738.997 603.916 740.512 610.012 744.461C627.609 755.859 627.908 789.934 609.33 800.619C604.953 803.136 601.22 804.08 596.301 804.985C587.732 805.361 581.069 804.643 573.852 799.53C567.205 794.754 562.737 787.524 561.441 779.442C558.039 759.479 568.476 742.452 589.115 739.677Z"/><path fill="#F7F6EF" d="M588.524 747.576C601.767 746.718 610.964 751.849 613.465 765.754C615.992 779.798 611.461 793.769 596.159 797.375C591.189 797.753 586.167 797.67 581.721 795.052C569.39 787.794 567.566 767.964 574.523 756.498C577.585 751.451 583.024 748.87 588.524 747.576Z"/><path fill="#F80E1E" d="M462.786 283.66L463.798 286.012C462.352 291.72 460.792 297.399 459.119 303.045C455.489 314.925 451.475 322.777 456.418 334.968C462.995 322.55 470.687 313.842 477.754 301.457C478.531 301.62 478.532 301.64 479.255 302.022C476.409 321.315 474.2 335.18 488.009 350.603C490.51 334.054 495.809 314.695 500.664 298.548C501.362 298.838 501.321 298.754 501.638 299.343C500.927 321.275 504.274 338.137 523.535 350.474C523.295 356.422 523.437 361.582 523.609 367.527C514.143 361.977 502.967 351.829 496.244 343.202C493.089 351.202 492.469 355.438 491.718 364.012C480.368 357.859 474.967 350.401 468.431 339.737C464.033 343.973 462.531 347.287 460.437 352.794C451.612 343.528 448.919 336.625 445.767 324.675C436.736 329.92 428.875 331.322 418.839 332.886C437.144 316.403 447.953 303.536 462.786 283.66Z"/><path fill="#F80E1E" d="M429.943 260.489C425.961 252.183 424.66 241.427 427.32 232.575C428.852 227.478 435.401 223.863 436.878 221.183C445.701 205.175 452.571 198.812 471.072 195.847C472.078 195.686 483.974 189.103 487.266 187.705C504.489 180.457 523.906 180.454 541.131 187.695C561.99 196.319 576.014 211.349 584.47 232.12C590.016 245.745 591.52 259.728 593.301 274.209C586.687 262.706 582.839 249.745 578.823 237.105C565.922 196.51 509.833 168.747 475.25 201.965C458.033 203.226 450.213 204.896 446.122 223.547C435.722 228.1 433.009 233.771 431.726 244.876C446.507 239.972 466.742 241.313 478 253.194C476.911 246.6 475.623 240.667 469.724 236.564C461.867 231.097 447.194 233.833 439.027 237.345L434.367 240.13C435.229 238.512 435.989 237.331 436.987 235.789C446.881 225.796 470.931 225.093 481.419 234.634C485.234 238.104 483.546 259.998 480.712 263.275C479.054 262.752 478.594 262.25 477.246 261.192C473.483 268.31 470.916 273.89 465.911 280.185C467.01 273.644 469.03 261.285 467.679 254.811C467.075 251.914 453.324 248.096 450.072 247.86C438.147 246.995 433.572 249.358 429.943 260.489Z"/><path fill="#F80E1E" d="M637.12 741.461C644.613 741.431 652.018 741.366 659.611 741.392C668.734 741.422 680.927 740.224 686.573 749.191C688.903 752.893 689.069 758.336 688.218 762.519C687.221 767.414 683.126 769.896 679.224 772.228C694.357 779.985 682.62 792.639 690.862 803.426L679.494 803.391C679.085 801.084 678.932 798.479 678.728 796.124C678.623 790.524 679.087 776.697 670.522 776.495C662.602 776.309 654.36 776.553 646.393 776.532L646.398 803.511L637.336 803.51C637.481 782.827 637.409 762.142 637.12 741.461Z"/><path fill="#F7F6EF" d="M646.529 748.902C654.335 748.85 663.262 748.556 670.998 749.183C680.346 749.94 681.691 759.213 677.005 766.309C675.001 767.646 673.997 768.438 671.504 768.612C663.309 769.185 654.783 768.904 646.56 768.944C646.512 762.263 646.502 755.583 646.529 748.902Z"/><path fill="#F80E1E" d="M89.7863 513.037C100.446 512.89 111.169 513.111 121.779 513.004C133.247 512.888 142.708 512.613 153.953 515.375C161.166 517.033 168.747 518.124 175.912 519.866C187.801 522.755 200.873 524.265 212.575 527.568C204.526 528.632 194.379 530.82 186.232 532.373C171.665 535.076 155.582 538.021 140.93 539.93C137.381 540.392 126.145 540.057 122.109 540.041C111.318 539.943 100.527 539.997 89.7384 540.202C95.7753 535.739 102.286 531.36 107.941 526.513C102.687 522.102 95.4606 517.142 89.7863 513.037Z"/><path fill="#F80E1E" d="M816.543 526.807C836.411 523.403 856.144 518.61 875.942 514.807C879.098 514.2 882.325 513.603 885.538 513.288C902.258 512.504 919.335 513.289 936.06 513.031C929.841 517.68 923.61 522.441 917.146 526.732L935.597 540.251C918.854 540.577 892.004 540.907 876.034 538.495C864.025 536.67 852.048 534.646 840.106 532.423C835.893 531.623 820.183 528.339 816.917 528.362C815.925 528.132 815.775 528.042 814.825 527.665L814.948 527.188L816.543 526.807Z"/><path fill="#F80E1E" d="M429.474 741.37L440.714 741.391C444.786 758.252 449.788 775.371 454.436 792.133C459.011 776.4 462.889 757.686 467.145 741.428L476.956 741.435C475.433 745.532 474.11 750.557 472.876 754.811C469.119 770.515 463.091 787.568 458.701 803.518L449.953 803.119C447.352 794.738 445.358 785.812 442.96 777.352C440.335 768.093 437.476 758.922 434.876 749.657C433.805 756.486 430.6 766.565 428.74 773.314C425.997 783.271 423.342 793.686 420.302 803.519L411.678 803.529C405.344 783.774 399.595 761.699 393.48 741.483L403.863 741.486C408.348 758.373 411.527 774.517 416.338 791.853C420.121 775.728 425.294 757.683 429.474 741.37Z"/><path fill="#F80E1E" d="M664.344 320.86C667.045 332.483 663.272 347.83 656.456 357.535C667.06 351.367 685.185 340.521 695.859 335.655C692.002 347.025 687.298 354.317 678.891 362.927C665.168 376.402 649.982 378.26 631.64 375.504C637.647 353.823 648.412 336.679 664.344 320.86Z"/><path fill="#F80E1E" d="M360.378 321.226C373.946 332.191 388.407 358.715 393.91 375.331C374.817 379.13 359.72 376.01 345.574 362.457C338.503 355.367 332.263 344.386 329.459 334.756C340.866 341.035 358.859 351.14 369.314 358.121C360.549 346.97 359.041 335.27 360.378 321.226Z"/><path fill="#F80E1E" d="M271.104 741.309L280.813 741.397C291.739 758.414 302.823 775.329 314.064 792.14C313.461 775.977 313.758 757.688 313.646 741.356L322.309 741.406C321.823 761.579 322.075 782.617 322.074 802.864C320.915 803.745 314.208 803.35 312.313 803.317C302.049 787.384 290.163 769.41 279.489 753.737C279.668 770.301 279.728 786.866 279.67 803.431L271.228 803.481C271.33 782.757 271.288 762.032 271.104 741.309Z"/><path fill="#F80E1E" d="M337.559 741.428L384.452 741.474L384.456 749.383L346.531 749.09C346.535 754.954 346.573 760.818 346.643 766.681L382.568 766.516L382.531 775.039L354.407 774.812C351.876 774.803 349.206 774.88 346.664 774.917C346.327 781.372 346.502 789.041 346.508 795.596L385.512 795.476L385.534 803.356L337.575 803.373L337.559 741.428Z"/><path fill="#F80E1E" d="M313.13 279.361C322.718 290.769 330.045 298.95 337.818 311.8L339.733 313.036C338.648 301.751 340.278 290.606 345.118 280.336C351.021 292.389 356.713 307.544 356.127 321.024C355.813 328.259 355.009 335.077 354.984 342.419C346.242 337.754 338.061 335.557 330.119 328.484C316.804 316.625 314.225 296.14 313.13 279.361Z"/><path fill="#F7F6EF" d="M337.818 311.8L339.733 313.036C339.892 313.579 340.322 314.625 340.185 315.243C340.175 315.289 340.074 315.329 340.032 315.312C339.276 315.012 337.977 312.12 337.818 311.8Z"/><path fill="#F80E1E" d="M711.475 280.414C713.518 282.569 707.877 305.897 706.959 309.107C701.394 328.552 687.195 333.937 670.567 342.331C670.53 328.429 667.155 322.311 669.8 308.311C672.826 297.677 675.134 290.326 680.431 280.459C686.15 294.335 686.666 302.832 684.375 317.762C692.58 301.607 699.557 293.484 711.475 280.414Z"/><path fill="#F80E1E" d="M744.396 741.476C748.541 741.382 752.763 741.376 756.915 741.327C747.446 749.352 738.318 757.769 729.555 766.559C734.029 771.361 743.803 784.717 748.392 790.589C751.848 794.811 755.215 799.106 758.491 803.469C754.649 803.405 750.681 803.491 746.828 803.528C739.121 794.666 729.755 781.769 722.411 772.241C719.968 774.855 717.04 777.486 714.406 779.95C714.208 787.612 714.321 795.766 714.297 803.467L705.444 803.335C705.452 782.742 705.318 762.151 705.042 741.56L714.198 741.557C714.219 750.961 714.289 760.366 714.408 769.769C724.165 760.088 734.164 750.654 744.396 741.476Z"/><path fill="#F80E1E" d="M312.864 234.714C316.413 237.377 326.725 263.634 328.782 268.783C330.691 254.017 333.612 248.93 343.839 238.369C344.865 247.804 345.786 258.253 344.721 267.622C343.724 278.393 338.927 286.401 334.615 296.309C328.15 292.023 322.155 287.766 317.8 281.159C309.552 268.646 309.837 248.793 312.864 234.714Z"/><path fill="#F80E1E" d="M731.845 617.114C750.02 616.274 752.024 627.673 751.558 643.016C751.269 652.529 748.453 658.804 738.667 661.467C728 662.175 721.252 658.27 719.518 647.248C717.716 635.799 718.294 620.191 731.845 617.114Z"/><path fill="#F7F6EF" d="M733.635 621.542C740.246 621.602 743.763 624.442 744.615 630.99C745.74 639.642 747.114 652.68 737.51 656.526C732.869 656.675 727.669 655.669 726.66 650.495C724.894 641.446 722.794 625.092 733.635 621.542Z"/><path fill="#F80E1E" d="M712.147 234.8C714.584 240.098 714.743 258.396 713.515 264.599C709.99 282.404 703.948 286.704 690.374 296.316C685.465 283.753 682.261 281.517 680.601 267.618C679.902 257.029 680.403 248.779 682.201 238.316C691.009 248.523 695.61 257.196 696.665 270.56C699.262 261.265 706.882 242.873 712.147 234.8Z"/><path fill="#F80E1E" d="M696.038 187.473C702.155 194.519 706.754 205.347 708.143 214.528C710.593 230.715 706.562 238.856 697.488 251.49C680.951 236.205 674.743 224.404 669.799 202.787C679.589 208.25 687.036 213.655 693.453 222.955C693.912 223.217 694.321 223.473 694.77 223.752C694.299 220.328 694.894 213.422 695.146 209.812C695.685 202.083 696.213 195.248 696.038 187.473Z"/><path fill="#FAB8C0" d="M693.453 222.955C693.912 223.217 694.321 223.473 694.77 223.752C695.004 227.357 693.655 224.473 693.453 222.955Z"/><path fill="#F80E1E" d="M329.068 186.657C329.328 192.467 329.484 198.568 329.737 204.379C329.987 210.126 331.133 220.926 330.035 226.355L330.72 226.456C333.118 216.781 346.925 207.351 355.386 203.206C350.316 227.012 343.371 234.397 328.183 251.895C318.131 237.222 313.257 227.297 317.989 209.194C320.42 199.893 323.573 194.571 329.068 186.657Z"/><path fill="#F0373C" d="M330.035 226.355L330.72 226.456C330.644 226.87 330.574 227.33 330.472 227.733L330.247 228.607C329.422 231.909 328.426 229.989 330.035 226.355Z"/><path fill="#F80E1E" d="M582.966 397.696C601.639 397.513 606.457 414.506 597.706 429.344C595.903 432.402 590.064 434.286 586.537 434.693C575.698 434.75 568.107 431.742 566.633 419.995C564.986 406.861 570.125 399.327 582.966 397.696Z"/><path fill="#F7F6EF" d="M583.909 403.614C597.274 404.082 597.774 426.549 585.104 428.692C581.644 428.405 578.65 428.131 576.598 424.963C572.293 418.319 573.079 405.793 582.272 403.931L583.909 403.614Z"/><path fill="#F80E1E" d="M286.962 398.499C292.926 398.503 299.863 398.14 305.701 398.721C319.98 400.144 321.2 420.056 314.243 429.147C307.004 435.908 296.49 434.012 286.967 433.975L286.962 398.499Z"/><path fill="#F7F6EF" d="M294.515 404.47C298.049 404.484 303.004 404.084 306.105 405.737C312.15 408.96 311.21 419.906 308.252 424.879C303.711 428.558 300.698 427.67 294.543 427.678L294.515 404.47Z"/><path fill="#F80E1E" d="M354.73 153.368L355.222 153.917C352.558 164.199 348.357 179.341 345.191 189.219C355.778 181.206 365.637 177.798 377.995 173.917C374.011 180.416 368.263 187.294 363.015 192.827C353.082 202.523 346.876 205.395 333.72 209.627C332.63 202.374 331.506 195.352 332.909 188.051C335.667 173.694 343.633 162.469 354.73 153.368Z"/><path fill="#F80E1E" d="M670.371 153.438C688.28 166.545 695.945 187.57 690.596 208.976C679.256 206.224 671.034 200.514 662.523 192.849C655.831 186.449 652.038 181.617 646.942 174.028C659.048 177.377 669.844 181.889 680.037 189.426C677.437 181.858 671.711 160.888 670.371 153.438Z"/><path fill="#F80E1E" d="M502.041 741.416C505.561 741.311 509.457 741.406 513.009 741.421C519.324 750.477 525.505 760.26 532.002 769.581C537.357 762.215 545.581 749.408 550.221 741.662L560.803 741.614C556.124 748.262 551.5 755.484 546.806 762.271C533.615 781.29 536.339 779.659 536.451 803.41L527.483 803.39C527.431 795.068 527.424 786.745 527.462 778.423C522.218 769.224 508.534 750.445 502.041 741.416Z"/><path fill="#F80E1E" d="M722.151 398.32C725.943 398.378 729.737 398.398 733.53 398.381L733.496 433.375L726.177 433.933C726.04 425.35 726.472 415.529 725.931 407.039L724.969 407.392C724.742 410.964 723.449 415.45 722.593 419.008L722.365 419.992L721.624 423.009L721.153 425.008C720.917 426.173 720.653 427.33 720.411 428.493L719.915 430.745C719.685 431.678 719.46 432.61 719.256 433.549L711.825 433.606C710.364 425.684 708.216 415.433 706.26 407.604C705.383 409.247 705.604 410.358 705.388 412.238C705.021 417.309 705.386 427.978 705.341 433.554C702.804 433.533 700.267 433.546 697.731 433.596C698.246 422.838 697.973 409.416 697.889 398.481L709.722 398.453C712.051 407.662 714.079 416.253 715.528 425.653C716.789 421.391 717.938 417.084 718.899 412.743L719.886 408.243C720.49 405.528 721.164 402.826 721.71 400.098L722.151 398.32Z"/><path fill="#F9DDF0" d="M705.388 412.238L705.21 410.54C705.135 409.757 704.7 406.062 705.278 405.326C705.354 405.323 705.429 405.319 705.504 405.316C705.883 405.586 705.994 406.321 706.069 406.704L706.26 407.604C705.383 409.247 705.604 410.358 705.388 412.238Z"/><path fill="#EB808E" d="M724.969 407.392C725.078 406.911 725.301 405.62 725.71 405.301L725.767 405.319C726.017 405.698 725.93 406.65 725.931 407.039L724.969 407.392Z"/><path fill="#F80E1E" d="M778.648 398.454C785.723 398.481 794.522 398.149 801.506 398.88C805.746 399.324 809.306 404.048 809.182 408.251C809.068 412.148 807.703 413.763 804.971 416.547C804.853 417.613 808.269 420.051 807.699 421.496C806.841 423.271 810.151 434.08 808.524 433.591C806.025 432.842 801.52 435.302 800.98 432.014C799.543 417.708 802.476 419.57 786.116 419.658L786.175 433.934C783.616 433.865 781.055 433.85 778.496 433.891C778.485 422.323 778.451 409.98 778.648 398.454Z"/><path fill="#F7F6EF" d="M786.46 404.487C791.366 404.51 804.995 402.566 800.393 412.36L799.987 413.253C795.776 414.731 790.946 414.307 786.47 414.335C786.439 411.052 786.436 407.77 786.46 404.487Z"/><path fill="#F80E1E" d="M588.582 523.538C594.894 523.542 606.628 522.403 611.566 526.391C618.654 532.116 618.561 544.346 612.935 551.269C605.364 556.921 598.061 555.402 588.577 555.388L588.582 523.538Z"/><path fill="#F7F6EF" d="M593.43 527.146C604.714 526.878 612.876 526.586 612.026 541.004C611.817 544.535 610.981 546.386 608.862 549.163C603.992 552.869 599.589 551.926 593.377 551.796C593.275 543.877 593.266 535.07 593.43 527.146Z"/><path fill="#F80E1E" d="M531.884 617.456C533.995 617.367 535.903 617.375 538.011 617.398L537.844 645.383C539.331 645.419 542.961 645.104 544.132 645.728C544.783 646.075 544.765 649.997 544.136 650.325C542.811 651.016 539.242 650.659 537.774 650.664C537.753 654.115 537.789 657.452 537.702 660.91C535.745 660.939 533.787 660.953 531.829 660.952L531.833 651.164C530.826 650.145 512.547 650.68 509.565 650.72C509.542 648.824 509.538 646.927 509.552 645.03C516.708 636.191 524.677 625.898 531.884 617.456Z"/><path fill="#F7F6EF" d="M531.262 625.311C532.119 627.58 531.876 642.179 531.885 645.487L516.569 645.465C516.126 645.129 515.774 644.982 516.23 644.475C521.644 638.464 526.073 631.482 531.262 625.311Z"/><path fill="#F80E1E" d="M818.581 617.477L824.531 617.452L824.52 645.545C825.543 645.549 833.542 643.416 830.826 650.447C830.548 651.165 825.579 650.82 824.519 650.829L824.506 661.232C822.494 661.116 820.479 661.045 818.464 661.02L818.474 650.721C811.354 650.109 803.453 651.159 796.34 650.444C795.607 649.296 795.94 646.148 796.639 645.023C797.853 643.07 799.422 641.026 800.937 639.343C807.224 632.361 812.705 624.758 818.581 617.477Z"/><path fill="#F7F6EF" d="M817.87 625.954C818.908 627.543 818.331 642.898 818.228 645.562L802.717 645.574C802.635 645.519 802.234 645.279 802.324 645.178C806.251 640.728 814.753 629.979 817.87 625.954Z"/><path fill="#F80E1E" d="M159.902 398.474L167.775 398.427C172.366 405.637 179.099 416.142 183.063 423.594C182.716 415.223 182.607 406.843 182.736 398.466C185.136 398.435 187.537 398.428 189.937 398.443L190.038 433.769C187.424 433.889 184.262 433.81 181.629 433.741C177.02 425.128 172.128 417.211 166.921 408.981C167.008 417.277 166.934 425.574 166.699 433.868C164.405 433.893 162.111 433.898 159.816 433.884L159.902 398.474Z"/><path fill="#F80E1E" d="M883.566 398.498L892.694 398.478C897.241 409.863 901.604 422.394 905.829 434.001C902.53 433.853 900.617 433.765 897.296 433.384C896.429 431.646 895.198 428.031 894.015 427.363L880.85 427.446C880.174 429.715 879.327 431.75 878.55 433.958L870.567 433.946C875.001 421.992 878.957 410.55 883.566 398.498Z"/><path fill="#F7F6EF" d="M888.18 407.31C889.43 408.437 889.03 409.082 889.588 410.766C890.652 413.978 891.88 417.27 892.785 420.529C893.029 421.408 889.789 421.154 889.625 421.154C887.591 421.155 885.37 421.208 883.359 421.072C884.749 416.412 886.358 411.819 888.18 407.31Z"/><path fill="#F80E1E" d="M668.111 398.407C671.264 398.512 674.506 398.477 677.667 398.495L677.886 399.093C681.696 409.218 687.728 423.967 690.688 433.806C687.759 433.862 685.693 433.849 682.783 433.676C681.924 431.782 680.818 428.126 679.464 426.959L666.307 426.962C665.399 429.282 664.452 431.509 663.519 433.802C660.819 433.632 658.381 433.591 655.679 433.526C660.132 422.473 664.323 409.708 668.111 398.407Z"/><path fill="#F7F6EF" d="M672.755 405.902C673.894 407.166 676.206 417.638 677.373 419.805C678.13 421.209 676.578 421.154 675.53 421.132L674.625 421.124C672.485 421.139 670.346 421.137 668.206 421.12C669.871 416.081 671.714 411.123 672.755 405.902Z"/><path fill="#F80E1E" d="M420.047 398.271C423.063 398.413 426.079 398.392 429.1 398.455C432.649 409.567 438.483 422.575 442.558 434.032C439.846 434.016 437.135 433.977 434.424 433.917C433.14 431.524 432.103 429.095 430.907 426.839C426.517 426.872 422.127 426.872 417.738 426.837C417.045 429.115 416.285 431.363 415.503 433.611C412.808 433.634 410.112 433.621 407.418 433.572C411.07 423.715 417.161 407.798 420.047 398.271Z"/><path fill="#F7F6EF" d="M424.339 406.849C425.374 407.845 429.694 419.983 429.408 420.896C428.843 421.382 427.393 421.28 426.625 421.311C424.347 421.324 421.988 421.377 419.717 421.298C421.43 416.538 422.971 411.719 424.339 406.849Z"/><path fill="#F80E1E" d="M269.733 617.171C274.701 617.355 276.215 615.855 276.177 620.375C275.874 639.215 282.221 665.134 253.998 661.503C236.166 659.209 240.096 644.054 239.668 630.91C239.537 626.896 239.356 621.077 239.805 617.238C241.851 617.253 243.896 617.289 245.941 617.344C245.989 623.971 245.874 630.604 245.964 637.25C246.208 642.126 244.904 649.328 248.608 653.202C253.024 657.82 263.062 657.482 267.442 652.942C268.236 652.119 269.344 650.399 269.416 649.249C270.088 638.618 269.681 627.839 269.733 617.171Z"/><path fill="#F80E1E" d="M528.391 397.695C535.323 397.941 541.825 399.696 542.952 407.247C543.523 411.07 539.334 408.721 536.481 409.392C535.241 409.683 535.495 405.687 534.292 405.226C532.467 403.189 531.041 403.506 528.75 402.994C524.387 401.929 519.523 407.976 523.896 410.754C529.416 414.26 544.03 413.26 544.284 422.517C544.549 432.138 537.131 434.428 529.107 434.652C522.674 434.452 516.249 433.275 514.04 426.25L513.056 423.078C515.57 422.851 518.122 422.771 520.648 422.635C521.948 425.014 522.123 427.052 525.234 428.097C527.007 428.739 532.41 429.238 534.022 428.124C537.823 425.496 537.105 421.553 532.748 420.535C531.253 420.196 529.752 419.886 528.245 419.605C522.397 418.48 515.44 416.725 514.581 409.748C514.229 407.002 515.021 404.233 516.773 402.09C520.022 398.081 523.711 398.07 528.391 397.695Z"/><path fill="#F80E1E" d="M478.535 398.473L505.886 398.465C505.868 400.491 505.838 402.516 505.796 404.541L486.101 404.488C486.094 407.076 486.116 409.664 486.166 412.252L504.312 412.208C504.317 414.267 504.339 416.325 504.377 418.383C498.402 418.314 492.324 418.357 486.368 418.212L486.351 427.552C492.644 427.538 500.086 427.711 506.281 427.395C507.552 427.986 509.102 433.083 505.091 434.037C501.789 433.288 482.992 433.624 478.528 433.695L478.535 398.473Z"/><path fill="#F80E1E" d="M506.281 427.395C507.552 427.986 509.102 433.083 505.091 434.037C504.468 432.944 503.365 429.329 503.65 428.345C504.342 428.056 505.076 427.865 505.777 427.594L506.281 427.395Z"/><path fill="#F80E1E" d="M522.959 299.726L524.61 300.915C525.012 304.249 526.73 310.276 527.94 313.428C535.951 334.298 545.338 342.916 564.874 352.08C562.47 352.166 560.063 352.204 557.657 352.193C515.763 351.628 522.069 332.902 522.959 299.726Z"/><path fill="#F80E1E" d="M352.844 397.654C361.462 397.102 368.55 397.935 370.973 407.43L371.394 409.131C369.346 409.25 365.91 409.463 363.839 409.258C362.144 406.532 362.826 404.942 358.988 403.575C355.172 402.215 348.123 404.752 350.481 409.766C351.447 411.821 360.536 413.655 363.01 413.905C371.81 414.793 374.282 422.007 370.326 429.355C368.398 432.998 363.81 433.702 359.745 434.413C354.586 434.486 347.557 434.397 344.279 429.913C339.901 423.924 340.848 421.57 348.497 422.605C349.542 422.747 349.68 427.553 352.803 428.354C356.314 429.255 362.878 429.762 364.396 425.232C365.556 415.01 345.183 422.901 342.643 410.732C342.089 407.947 342.648 405.057 344.199 402.679C346.426 399.332 349.138 398.427 352.844 397.654Z"/><path fill="#F80E1E" d="M742.089 398.475L769.577 398.471L769.567 404.536L749.547 404.524C749.526 407.171 749.527 409.819 749.551 412.466L767.817 412.457C767.891 414.471 767.877 416.44 767.863 418.454L750.882 418.327C749.89 418.614 749.677 418.88 749.685 419.965L749.784 427.519L769.971 427.514C770.001 429.641 770.013 431.768 770.006 433.895C760.789 433.872 751.572 433.899 742.356 433.976L742.089 398.475Z"/><path fill="#F80E1E" d="M250.616 398.468L278.004 398.45C277.991 400.492 277.99 402.534 278.001 404.576C271.47 404.509 264.939 404.474 258.408 404.472C258.404 407.124 258.42 409.775 258.457 412.427L276.345 412.408C276.377 414.437 276.336 416.478 276.336 418.51L259.101 418.466C257.965 419.574 258.498 425.752 258.513 427.739C264.498 427.806 270.569 427.784 276.504 427.743C279.766 427.721 278.899 427.996 279.003 430.995C279.008 431.117 279.101 433.231 278.622 433.267C269.596 433.931 260.002 433.624 250.84 433.588C250.806 421.882 250.496 410.16 250.616 398.468Z"/><path fill="#F80E1E" d="M692.977 617.133C698.9 616.76 707.748 617.719 709.933 624.505C715.735 642.527 692.701 642.392 686.52 653.75C686.346 654.069 685.957 655.066 685.755 655.504C689.183 655.521 706.116 655.306 710.812 655.813C711.154 655.85 711.058 658.119 711.018 658.252C711.033 658.203 711.121 660.333 710.792 660.393C706.801 661.12 691.358 660.874 688.125 660.859L678.654 660.852C681.186 639.113 700.257 642.551 703.793 632.189C704.462 630.226 704.241 627.963 703.327 626.112C702.418 624.271 700.744 622.94 698.808 622.304C696.42 621.521 693.913 621.728 691.71 622.929C689.076 624.365 687.344 626.9 686.577 629.754C686.257 630.948 685.904 632.128 685.574 633.319C685.27 633.297 680.85 633.111 680.967 633.146C677.775 632.214 682.217 623.031 683.465 621.742C686.655 618.449 688.854 617.881 692.977 617.133Z"/><path fill="#F80E1E" d="M771.244 617.117C776.251 616.701 780.167 616.519 784.709 619.078C787.437 620.603 789.418 623.182 790.187 626.212C794.402 642.402 772.071 643.262 766.56 653.498C766.196 654.175 765.837 654.758 765.441 655.412C773.543 655.609 781.667 655.601 789.771 655.49C791.733 655.463 790.698 657.828 790.875 659C790.885 659.07 790.901 660.519 790.536 660.553C783.593 661.209 775.687 660.912 768.625 660.874C766.912 660.857 759.823 660.947 759.727 660.8C754.985 653.571 769.413 642.325 773.574 640.76C779.139 638.666 782.866 634.757 783.805 631.695C786.274 623.645 776.272 619.475 770.302 623.126C766.853 625.149 766.584 629.517 765.836 633.096C763.699 633.061 761.562 633.041 759.425 633.038L759.529 632.164C760.512 623.597 762.764 619.778 771.244 617.117Z"/><path fill="#F80E1E" d="M485.493 617.117C492.298 616.746 501.562 618.034 503.459 626.255C506.398 638.988 491.641 643.289 483.586 648.778C481.442 650.238 479.769 653.189 478.345 655.413C486.988 655.496 495.631 655.516 504.274 655.472C504.313 657.272 504.272 659.057 504.247 660.857C496.456 660.868 488.666 660.834 480.875 660.755C477.682 660.697 474.489 660.663 471.295 660.652C473.539 649.725 476.165 646.655 486.21 641.231C489.941 638.928 494.642 637.075 496.419 632.737C500.719 622.471 488.089 619.148 481.708 623.92C476.76 627.62 481.226 635.046 473.988 633.379C471.473 632.8 472.854 631.234 472.968 629.248C473.401 621.68 478.661 618.498 485.493 617.117Z"/><path fill="#F80E1E" d="M390.235 141.543C390.74 141.509 393.018 141.05 392.326 142.345C390.668 145.448 388.489 148.333 386.524 151.254C378.288 163.499 370.436 173.425 356.108 178.666C350.132 179.72 357.233 162.063 358.638 159.807C364.671 150.116 379.584 144.152 390.235 141.543Z"/><path fill="#F80E1E" d="M476.986 523.573C483.067 523.579 489.459 523.355 495.498 523.712C501.185 524.048 504.659 527.127 504.297 533.004C504.061 536.842 501.892 538.005 499.124 540.406C507.732 545.395 501.559 545.844 504.724 554.103C504.697 554.032 506.185 555.653 504.56 555.547C502.139 555.389 499.513 556.472 499.129 553.511C499.026 551.728 498.763 549.277 498.607 547.746C497.824 540.061 495.855 541.765 489.421 541.666C487.149 541.63 484.028 541.647 481.584 541.658C481.58 543.489 482.525 554.66 480.778 555.498C480.577 555.594 477.321 555.685 477.297 555.172C476.802 544.853 476.921 534.013 476.986 523.573Z"/><path fill="#F7F6EF" d="M481.667 527.547C485.054 527.505 495.238 526.741 497.954 528.766C500.72 530.829 499.972 534.179 497.914 536.732C493.385 538.877 486.895 538.236 481.635 538.223L481.667 527.547Z"/><path fill="#F80E1E" d="M632.737 141.174C645.001 143.543 658.156 149.122 665.729 159.549C669.408 164.614 672.224 173.216 671.252 179.554C664.984 177.598 660.122 174.649 654.994 170.946C650.298 167.554 633.214 145.547 632.737 141.174Z"/><path fill="#F80E1E" d="M141.909 398.394C144.44 398.378 146.972 398.396 149.502 398.448C149.603 400.401 149.555 402.393 149.543 404.351C149.559 416.867 153.672 434.123 136.501 434.534C119.67 434.937 120.089 426.345 120.594 412.564C120.75 408.302 120.568 402.813 120.61 398.437L128.111 398.414C128.112 407.428 124.047 436.74 140.107 426.605C142.954 424.808 141.905 402.483 141.909 398.394Z"/><path fill="#F80E1E" d="M441.99 523.683C448.093 523.736 461.827 522.133 466.684 526.667C468.676 528.526 468.45 531.362 468.464 533.754C468.483 537.025 464.764 538.478 464.011 539.953C464.291 540.833 467.601 541.293 467.487 543.993C467.411 545.79 469.197 553.858 468.888 555.207C468.633 555.354 468.324 555.497 468.023 555.518C464.636 555.752 463.838 555.875 463.628 552.379L463.589 551.624C463.046 537.835 460.203 541.65 446.454 541.621C446.466 545.988 446.737 550.874 446.296 555.155C446.219 555.908 441.731 555.649 441.75 555.11C442.129 544.745 441.672 534.082 441.99 523.683Z"/><path fill="#F7F6EF" d="M446.389 527.491C453.607 527.522 468.071 524.813 462.735 536.413L462.382 536.592C457.969 538.886 451.664 538.14 446.389 538.117C446.364 534.575 446.364 531.033 446.389 527.491Z"/><path fill="#F80E1E" d="M477.225 208.311C485.75 206.098 494.816 202.334 503.639 203.079C515.209 204.056 522.611 208.902 530.038 217.323L531.594 219.132L531.357 219.716C530.105 219.354 529.978 219.355 528.863 218.714C523.946 216.577 519.788 214.852 514.743 212.996C513.986 214.087 513.187 215.146 512.345 216.172C501.327 229.585 486.45 216.067 477.225 208.311Z"/><path fill="#F7F6EF" d="M498.572 207.675C500.236 206.714 502.289 206.722 503.945 207.696C505.601 208.671 506.606 210.46 506.574 212.382C506.542 214.303 505.48 216.059 503.792 216.978C501.228 218.375 498.017 217.451 496.588 214.904C495.159 212.357 496.044 209.135 498.572 207.675Z"/><path fill="#F80E1E" d="M849.637 397.701C859.856 398.345 862.162 400.487 866.07 409.708C863.511 409.977 861.35 410.129 858.783 410.47C846.416 389.865 833.22 419.688 846.257 427.478C851.126 430.387 855.898 427.362 858.269 422.207C858.816 421.391 864.668 421.867 866.048 421.85C864.765 425.727 864.038 429.202 860.434 431.732C855.074 435.652 845.602 435.228 840.189 431.7C831.511 426.043 830.615 410.708 837.328 403.187C841.136 398.919 844.321 398.181 849.637 397.701Z"/><path fill="#F80E1E" d="M550.042 298.641C557.995 315.168 570.603 327.1 587.954 333.093C589.768 333.731 591.618 334.261 593.495 334.679C594.198 334.843 594.925 335.039 595.627 335.217C596.378 335.357 597.129 335.503 597.878 335.656L597.794 336.242C597.182 336.445 596.601 336.644 595.981 336.823C580.031 338.513 571.9 338.004 556.534 332.96C554.93 328.733 553.621 324.4 552.617 319.993C552.293 318.573 551.931 317.148 551.616 315.743L551.167 313.723L550.147 308.994C549.45 305.739 548.895 302.436 548.348 299.152L550.042 298.641Z"/><path fill="#F0373C" d="M595.627 335.217C596.378 335.357 597.129 335.503 597.878 335.656L597.794 336.242C597.182 336.445 596.601 336.644 595.981 336.823L595.627 335.217Z"/><path fill="#F80E1E" d="M612.483 585.991C614.676 585.914 615.274 585.789 617.346 586.334C617.803 590.252 617.551 600.49 617.554 604.792L617.555 642.543L617.541 674.435C617.537 677.855 617.734 687.375 617.169 690.249L612.501 690.265L612.483 585.991Z"/><path fill="#F80E1E" d="M395.669 585.93C397.422 585.919 398.802 585.738 400.4 586.411C401.079 593.078 400.536 613.02 400.523 620.765L400.513 690.082C398.658 690.183 398.18 690.273 396.312 689.877C395.148 687.672 395.658 595.579 395.669 585.93Z"/><path fill="#F80E1E" d="M610.338 398.561C619.385 398.599 628.433 398.588 637.48 398.529C637.565 405.549 638.716 404.548 631.501 404.528C627.216 404.516 622.755 404.501 618.454 404.495C618.445 407.196 618.456 409.897 618.487 412.598C622.349 412.613 630.061 412.448 634.164 412.711C634.429 412.728 634.606 413.68 634.656 413.878C634.626 415.031 634.973 417.793 634.277 418.689C633.818 419.28 620.209 418.796 618.437 418.813L618.487 434.067C615.886 434 613.372 433.952 610.772 433.791C610.008 423.08 610.604 409.623 610.338 398.561Z"/><path fill="#F80E1E" d="M417.974 523.482C419.322 523.496 421.235 523.394 422.547 523.615C422.945 523.682 423.248 524.291 423.436 524.728C427.744 534.716 431.894 544.775 436.25 554.738C436.326 554.912 436.128 555.103 436.054 555.197C435.665 555.689 432.145 555.469 431.98 555.469C429.32 554.635 428.749 548.524 427.203 546.43C426.778 545.854 425.506 546.017 425.125 546.036C421.428 546.106 417.731 546.117 414.034 546.069C412.941 549.024 412.01 552.276 410.417 554.978C410.055 555.93 405.353 555.772 405.639 554.988C409.163 545.339 413.584 533.628 417.622 524.313L417.974 523.482Z"/><path fill="#F7F6EF" d="M420.16 528.747C422.179 530.482 424.251 538.597 425.647 541.208C426.465 542.738 424.329 542.512 423.529 542.505L422.625 542.511L415.458 542.507C416.925 537.776 418.22 533.318 420.16 528.747Z"/><path fill="#F80E1E" d="M213.728 398.464C223.328 398.398 233.707 398.228 243.201 398.788C243.871 399.372 243.564 404.158 243.284 404.219C240.703 404.775 235.199 404.491 232.56 404.509L232.53 422.75L232.536 433.563C230.019 433.558 227.502 433.571 224.985 433.601L225.061 404.548C221.261 404.51 217.46 404.5 213.659 404.518C213.624 402.397 213.653 400.584 213.728 398.464Z"/><path fill="#F80E1E" d="M442.035 398.534L471.979 398.491C471.977 399.508 472.16 404.105 471.74 404.297C470.644 404.8 461.828 404.557 460.644 404.569C460.595 410.338 460.58 416.106 460.598 421.875C460.609 425.837 460.639 429.503 460.463 433.47C457.697 433.72 455.833 433.811 453.038 433.869L452.977 404.545L442.323 404.514C442.094 402.302 442.034 400.753 442.035 398.534Z"/><path fill="#F80E1E" d="M221.501 617.274C223.667 617.329 225.834 617.353 228.001 617.347C227.954 628.48 228.071 639.773 227.976 650.752C227.908 658.557 220.866 662.182 213.997 661.593C208.856 661.152 206.564 660.433 203.429 656.233C202.785 654.259 200.846 646.741 203.692 646.094C213.163 644.032 202.221 656.116 215 656.606C224.06 656.954 221.887 645.615 221.808 638.96L221.501 617.274Z"/><path fill="#F80E1E" d="M288.458 617.401C290.5 617.426 292.548 617.395 294.585 617.46C294.491 630.195 294.516 642.931 294.661 655.666L317.272 655.646C317.3 657.362 317.25 659.174 317.228 660.9C312.959 661.8 293.855 660.998 288.434 660.958C288.163 647.08 288.252 631.316 288.458 617.401Z"/><path fill="#F80E1E" d="M593.178 279.374C594.204 280.706 594.658 284.875 595.065 286.491C598.97 301.968 606.063 314.649 620.052 323.04C621.53 323.926 618.354 323.549 618.393 323.555C617.853 323.419 617.312 323.29 616.77 323.168C609.092 321.503 596.182 316.836 590.871 311.09C587.321 307.249 591.748 284.26 593.178 279.374Z"/><path fill="#F80E1E" d="M377.855 398.467C385.588 398.523 398.537 398.338 406.699 398.678C406.796 398.682 406.889 398.938 406.899 398.963C407.166 399.643 407.062 403.794 406.863 403.98C405.934 404.85 397.378 404.405 396.104 404.401L396.118 423.625L396.09 433.776C393.698 433.675 391.304 433.615 388.911 433.595C388.963 423.914 388.862 414.233 388.609 404.555C384.889 404.504 381.169 404.523 377.45 404.614C377.53 402.427 377.639 400.646 377.855 398.467Z"/><path fill="#F80E1E" d="M562.025 140.065C577.926 139.65 578.029 158.357 567.13 162.219L566.192 162.58C549.398 161.872 549.7 145.378 562.025 140.065Z"/><path fill="#F7F6EF" d="M563.714 143.938C564.39 143.964 565.571 143.958 566.206 144.158C567.652 144.609 568.848 145.636 569.511 146.997C571.938 152.015 568.44 156.48 563.94 158.558C554.022 157.057 556.509 148.277 563.714 143.938Z"/><path fill="#F80E1E" d="M556.497 523.53C560.486 523.547 576.143 523.354 581.256 523.761C581.358 523.769 581.472 524.511 581.465 524.491C581.56 524.745 581.465 527.046 581.059 527.093C577.096 527.55 564.493 527.395 560.978 527.536C560.871 530.697 560.853 533.861 560.923 537.024C567.008 537.1 573.25 536.934 579.277 537.245C579.732 537.268 579.689 540.809 579.272 540.837C574.13 541.179 568.574 540.967 563.375 540.951C562.839 540.959 561.091 540.857 560.927 541.324C560.315 543.063 560.69 549.945 560.745 551.679C567.524 551.622 574.443 551.508 581.181 551.741C581.84 551.764 581.598 555.19 581.261 555.214C573.237 555.802 564.43 555.488 556.324 555.479C556.503 544.838 556.245 534.129 556.497 523.53Z"/><path fill="#F80E1E" d="M389.218 255.599C403.185 255.54 401.743 264.149 401.649 274.537L393.75 274.537L381.094 274.556C381.264 265.579 379.418 258.636 389.218 255.599Z"/><path fill="#F7F6EF" d="M388.426 260.553C391.949 260.298 397.043 259.914 397.909 265.24C398.318 267.752 398.458 269.311 395.855 269.791C394.161 269.802 386.45 270.344 385.88 269.286C383.935 265.679 386.306 262.419 388.426 260.553Z"/><path fill="#F80E1E" d="M459.983 140.049C462.117 138.718 463.918 137.5 466.161 136.328C468.81 141.409 473.078 149.969 475.186 155.051C473.891 155.606 472.614 156.187 471.358 156.828L471.315 156.814C469.219 152.06 466.787 147.316 464.619 142.511C464.882 144.795 466.897 156.748 466.757 159.067C466.752 159.143 464.018 161.793 462.256 159.526C459.463 156.744 456.397 151.085 453.722 149.399C453.481 151.678 458.905 159.447 459.241 162.28C459.317 162.922 456.177 164.427 455.736 164.693C452.437 158.479 450.213 152.785 446.418 146.753C448.713 145.538 451.027 144.356 453.359 143.21C454.471 144.646 455.455 145.805 456.504 147.317C458.465 149.499 459.962 152.171 462.1 154.457L462.586 154.986C462.111 152.759 461.732 150.512 461.451 148.253C460.975 145.455 460.572 142.837 459.983 140.049Z"/><path fill="#F80E1E" d="M418.939 168.347C430.609 168.159 424.16 175.206 427.727 175.579C431.329 175.956 432.985 177.533 436.315 179.683C435.218 180.988 434.244 182.289 433.17 183.585C430.75 182.082 428.861 181.021 426.329 179.733C424.825 181.462 423.268 183.144 421.662 184.777C422.826 185.816 424.008 186.834 425.206 187.832C428.049 189.964 426.201 190.732 423.893 193.469C420.246 189.098 413.325 182.985 408.961 178.743C412.395 175.217 415.356 171.897 418.939 168.347Z"/><path fill="#F7F6EF" d="M419.979 172.801C426.674 172.814 421.382 179.771 419.392 182.096C417.184 180.453 416.741 179.968 414.794 178.009C416.744 175.879 417.842 174.734 419.979 172.801Z"/><path fill="#F80E1E" d="M536.915 550.865L537.248 550.14C540.565 543.073 544.249 531.26 547.68 523.841C547.896 523.563 548.459 523.506 548.75 523.507C552.617 523.522 552.249 523.326 550.522 527.801C547.815 535.772 542.889 547.483 539.712 555.577C538.792 555.557 534.973 555.647 534.743 555.242C530.158 547.189 525.038 531.08 521.037 523.564C522.091 523.554 525.554 523.221 525.929 523.995C529.668 531.715 533.547 543.298 536.915 550.865Z"/><path fill="#F80E1E" d="M198.988 398.412C201.486 398.368 203.983 398.35 206.481 398.357L206.438 433.836L199.01 433.934L198.988 398.412Z"/><path fill="#F80E1E" d="M817.775 398.556C820.181 398.521 822.588 398.5 824.996 398.493C825.032 409.959 825.4 422.179 825.277 433.534C822.76 433.619 820.414 433.748 817.905 433.905C817.96 422.164 817.633 410.205 817.775 398.556Z"/><path fill="#F80E1E" d="M514.06 142.563C514.104 138.536 514.17 134.482 514.146 130.459C514.106 130.066 514.111 129.376 514.265 128.992C514.327 127.834 518.177 128.322 518.194 128.676C518.349 131.855 518.956 147.644 517.461 149.409C515.277 149.027 513.983 149.23 512.672 147.359C509.784 143.236 507.581 138.516 504.942 134.254C505.434 139.751 505.413 143.763 505.469 149.256C503.798 149.232 502.205 149.259 500.542 149.263C501.082 142.097 500.819 135.668 500.864 128.506C501.359 128.498 504.879 128.343 505.033 128.523C508.193 132.223 511.522 138.423 514.06 142.563Z"/><path fill="#F80E1E" d="M395.514 209.497C405.676 210.51 402.907 217.788 399.572 224.227C401.676 225.036 405.082 225.675 406.565 227.005C406.891 227.297 406.534 231.85 404.537 230.537C404.187 230.307 402.207 229.718 401.684 229.565C397.897 227.897 390.865 225.101 387.04 223.903C388.236 219.851 390.379 211.337 394.644 209.843L395.514 209.497Z"/><path fill="#F7F6EF" d="M395.456 213.918C400.518 215.954 399.545 217.45 396.821 222.489L394.575 221.757C390.505 220.471 393.506 216.877 395.456 213.918Z"/><path fill="#F80E1E" d="M491.929 129.642C492.872 130.404 492.674 132.982 492.236 133.279C488.95 135.514 480.416 132.306 482.482 138.545C483.546 141.757 490.767 137.036 492.263 138.343C496.774 142.28 485.084 142.979 482.968 143.387L483.893 148.812C487.769 147.801 491.679 146.922 495.616 146.176C496.701 147.087 497.151 150.042 494.775 150.453C490.166 151.251 485.231 152.213 480.664 153.276L480.219 153.382C479.311 149.189 478.506 144.961 477.6 140.744C477.08 138.228 476.516 135.722 475.908 133.227C481.318 131.762 486.666 131.087 491.929 129.642Z"/><path fill="#F80E1E" d="M400.901 193.032C407.653 193.297 415.036 194.992 421.883 195.727C420.647 197.706 419.489 201.293 417.055 198.956C415.99 197.932 411.884 204.944 410.239 206.591C411.273 207.621 412.383 208.558 413.339 209.647C414.123 210.536 411.729 214.466 410.823 213.345C409.199 211.344 407.8 209.644 406.238 207.543C403.749 204.196 399.189 200.686 398.263 196.527C398.04 195.528 400.358 193.532 400.901 193.032Z"/><path fill="#F7F6EF" d="M403.26 197.384C404.412 197.45 410.831 197.883 411.29 198.668C411.291 199.003 410.15 200.497 409.968 200.771C409.663 201.137 408.584 202.65 408.174 202.837C407.253 202.664 403.94 198.287 403.26 197.384Z"/><path fill="#F80E1E" d="M605.524 174.995C611.535 174.533 614.522 177.994 615.973 183.748C616.535 185.977 615.117 190.475 612.414 188.086C610.494 186.376 612.674 182.222 610.895 180.816C601.999 173.786 609.466 188.783 609.5 189.75C609.684 194.968 607.612 196.403 603.066 196.891C597.897 195.379 594.498 190.213 594.582 184.748C595.032 179.484 601.142 181.94 599.358 184.695C595.11 191.258 609.221 197.201 604.072 187.647C601.459 182.799 600.398 179.034 604.741 175.624L605.524 174.995Z"/><path fill="#F80E1E" d="M385.397 231.153C390.529 234.124 388.516 234.733 387.142 241.265L386.942 242.254C386.739 243.214 386.421 243.816 387.653 244.51C393.536 247.828 390.579 235.614 392.349 235.169C396.288 234.179 396.355 236.741 395.122 240.26C394.864 240.997 393.171 246.016 395.687 245.882C398.532 246.197 399.097 246.397 399.463 243.76C399.688 242.026 399.984 240.303 400.349 238.593C400.491 237.942 400.633 237.291 400.775 236.639C401.236 234.352 404.527 235.242 404.243 236.765C403.303 241.8 402.804 246.847 401.796 251.871C395.341 250.431 388.864 249.487 382.357 248.273C383.028 242.251 383.97 237.018 385.397 231.153Z"/><path fill="#F80E1E" d="M612.53 217.84C619.098 217.967 625.713 217.994 632.266 218C634.757 218.003 635.799 222.327 635.446 223.262C634.741 225.133 628.523 229.066 626.76 230.233C622.712 233.066 622.079 233.574 618.571 237.017C616.381 231.6 616.568 232.84 620.768 229.802C620.001 227.185 619.365 224.535 618.677 221.897C612.977 221.454 613.385 222.988 612.53 217.84Z"/><path fill="#F7F6EF" d="M622.236 221.74C624.072 221.767 625.91 221.752 627.746 221.695C628.314 221.676 629.406 221.426 629.557 222.216C629.262 222.915 627.907 223.693 627.327 224.131C626.211 224.927 625.195 225.831 624.152 226.721C623.568 225.257 622.461 223.11 622.236 221.74Z"/><path fill="#F80E1E" d="M621.065 258.982L641.508 259.089C641.516 264.067 641.545 269.057 641.462 274.032C641.441 275.278 638.205 274.894 638.093 274.817C637.001 274.016 637.777 271.404 637.533 270.458C637.245 269.346 638.277 264.014 636.777 263.965C635.245 263.915 633.407 263.237 632.906 264.933C632.903 266.575 633.307 272.734 632.513 274.051C632.304 274.398 630.848 274.524 630.489 274.394C628.253 273.581 630.571 266.097 629.432 264.079C628.973 263.495 625.727 263.821 625.474 263.837C623.401 264.478 625.45 273.685 624.298 274.303C620.25 276.475 621.1 272.201 621.123 271.499C621.143 267.326 621.124 263.154 621.065 258.982Z"/><path fill="#F80E1E" d="M585.304 150.815C587.878 153.376 589.624 155.08 592.794 157.211C594.491 158.351 598.13 160.183 595.503 162.303C593.489 163.929 588.529 157.43 586.268 157.361C585.581 157.34 583.869 159.542 583.964 160.233C585.005 161.84 587.492 163.054 588.969 164.554C590.557 166.166 591.261 165.587 590.622 167.962C590.142 168.192 588.966 168.904 588.424 168.953C586.379 167.585 583.722 165.133 581.237 163.438C579.925 165.327 577.91 168.911 575.976 170.032C575.454 170.334 572.752 168.417 573.02 167.979C576.631 162.083 581.139 156.398 585.304 150.815Z"/><path fill="#F80E1E" d="M636.506 233.667C638.299 234.307 638.348 234.094 638.634 235.983C639.178 239.576 639.888 243.159 640.431 246.758C640.631 248.082 641.282 250.696 640.894 251.896C640.634 252.317 639.175 252.085 638.992 252.102C636.389 252.34 636.829 250.272 636.157 247.498L635.786 246.012L627.62 247.285C627.065 247.436 624.76 247.793 624.497 247.879C619.928 249.363 619.05 248.025 619.703 243.796C619.706 243.781 633.97 241.457 635.34 241.292C635.016 239.045 633.915 235.605 635.945 234.113L636.506 233.667Z"/><path fill="#F80E1E" d="M439.397 150.829C444.617 153.617 439.078 156.15 436.72 157.702C441.008 162.102 443.552 166.264 447.628 170.468C446.165 171.643 444.965 172.492 443.491 173.595C442.432 172.23 441.557 171.037 440.557 169.628C437.817 165.756 436.315 164.205 433.333 160.61C431.919 161.694 430.069 163.376 428.492 164.156C427.744 164.525 425.993 162.013 426.167 161.686C427.277 159.601 430.675 157.979 432.437 156.32C434.638 154.509 437.088 152.587 439.397 150.829Z"/><path fill="#F80E1E" d="M621.448 191.384C623.243 193.002 625.762 198.964 627.42 201.46C628.25 202.71 632.834 209.643 626.801 207.881C625.924 207.625 625.195 204.425 624.82 203.42C621.52 205.388 618.743 206.791 615.384 208.535C614.27 209.137 609.334 212.141 608.942 211.061C607.945 208.315 607.566 207.673 609.745 206.506C614.056 204.198 617.78 201.901 621.601 199.397C619.101 194.152 618.213 195.651 621.177 191.748L621.448 191.384Z"/><path fill="#F80E1E" d="M512.658 523.544C513.447 523.55 516.862 523.244 516.892 523.993C517.258 533.215 517.074 546.705 517.202 555.59C516.232 555.559 513.686 555.861 512.905 555.207C512.466 554.84 512.645 526.862 512.658 523.544Z"/><path fill="#F80E1E" d="M526.242 129.368C531.886 130.114 537.856 130.943 543.384 132.203C544.511 132.46 543.814 135.079 543.422 135.242C542.671 135.554 537.52 134.662 536.905 134.557L535.863 139.995C535.535 141.626 535.264 143.265 534.913 144.892C534.734 146.086 534.658 151.52 532.267 151.386C527.508 151.586 530.783 146.132 530.929 142.741C531.012 140.807 531.981 135.925 532.339 133.629C526.603 132.904 526.845 134.249 526.242 129.368Z"/><path fill="#F0373C" d="M462.786 283.66C463.118 283.114 464.068 281.594 464.476 281.424C465.586 280.961 463.904 285.548 463.798 286.012L462.786 283.66Z"/><path fill="#F0373C" d="M477.754 301.457C477.991 300.806 478.925 298.515 479.67 298.318C480.17 298.663 479.414 301.471 479.255 302.022C478.532 301.64 478.531 301.62 477.754 301.457Z"/><path fill="#F0373C" d="M548.348 299.152C547.273 294.153 547.718 293.893 550.042 298.641L548.348 299.152Z"/><path fill="#F0373C" d="M522.959 299.726C522.953 299.997 522.821 295.667 523.779 296.933C524.15 297.424 524.506 300.23 524.61 300.915L522.959 299.726Z"/><path fill="#EB808E" d="M500.664 298.548C501.706 293.969 502.523 297.542 501.638 299.343C501.321 298.754 501.362 298.838 500.664 298.548Z"/><path fill="#F80E1E" d="M597.878 335.656C598.276 335.731 598.699 335.568 598.848 335.983C598.61 336.358 598.185 336.237 597.794 336.242L597.878 335.656Z"/></svg>