<svg xmlns="http://www.w3.org/2000/svg" width="203.611" height="10.454" viewBox="0 0 203.611 10.454">
  <g>
    <path d="M199.181,0h-66.46v1.96c3.31,3.32,5.17,5.18,8.49,8.49h62.4V4.424C201.881,2.694,200.911,1.724,199.181,0Zm-1.08,1.77h-4.08v-.69h4.08Z" fill="#fff"/>
    <path d="M128.24.5l8.282,8.282V9.954H4.632L2.382,7.7.5,5.822V.5H128.24m.207-.5H0V6.029l4.425,4.425h132.6V8.575L128.447,0Z" fill="#fff"/>
    <g>
      <path d="M10.06,5.859H8.683l-.289.828H7.752L9.1,3.133H9.65l1.344,3.554H10.35Zm-1.2-.5h1.03L9.37,3.887Z" fill="#fff"/>
      <path d="M12.015,6.194h1.614v.493H11.4V3.133h.617Z" fill="#fff"/>
      <path d="M14.72,6.194h1.614v.493H14.1V3.133h.617Z" fill="#fff"/>
      <path d="M18.693,7.154H16.454V6.687h2.239Z" fill="#fff"/>
      <path d="M20.921,5.771a.547.547,0,0,0-.031-.191.379.379,0,0,0-.116-.154.921.921,0,0,0-.232-.136,3.562,3.562,0,0,0-.38-.136,3.667,3.667,0,0,1-.469-.174,1.607,1.607,0,0,1-.37-.226.981.981,0,0,1-.242-.3.829.829,0,0,1-.088-.386.872.872,0,0,1,.091-.4.966.966,0,0,1,.258-.313,1.222,1.222,0,0,1,.4-.205,1.707,1.707,0,0,1,.514-.073,1.571,1.571,0,0,1,.539.087,1.188,1.188,0,0,1,.4.235,1.024,1.024,0,0,1,.252.346,1,1,0,0,1,.088.418h-.615a.68.68,0,0,0-.04-.238.48.48,0,0,0-.123-.188.564.564,0,0,0-.21-.123.932.932,0,0,0-.3-.044,1.03,1.03,0,0,0-.283.036.555.555,0,0,0-.2.1.388.388,0,0,0-.117.156.482.482,0,0,0-.039.195A.393.393,0,0,0,19.8,4.4a1.991,1.991,0,0,0,.57.244,3.306,3.306,0,0,1,.521.2,1.461,1.461,0,0,1,.364.243.862.862,0,0,1,.216.3.967.967,0,0,1,.071.382.885.885,0,0,1-.089.4.855.855,0,0,1-.254.3,1.2,1.2,0,0,1-.4.193,1.976,1.976,0,0,1-1.028,0,1.437,1.437,0,0,1-.447-.21A1.1,1.1,0,0,1,19,6.106a.964.964,0,0,1-.121-.493H19.5a.642.642,0,0,0,.06.289.527.527,0,0,0,.163.2.7.7,0,0,0,.246.113,1.277,1.277,0,0,0,.3.035.761.761,0,0,0,.484-.131A.422.422,0,0,0,20.921,5.771Z" fill="#fff"/>
      <path d="M23.241,4.817l.818-1.684h.683L23.551,5.379V6.687h-.62V5.379L21.737,3.133h.686Z" fill="#fff"/>
      <path d="M26.946,5.771a.525.525,0,0,0-.031-.191.362.362,0,0,0-.116-.154.932.932,0,0,0-.231-.136,3.644,3.644,0,0,0-.38-.136,3.611,3.611,0,0,1-.469-.174,1.566,1.566,0,0,1-.37-.226.952.952,0,0,1-.242-.3.817.817,0,0,1-.088-.386.872.872,0,0,1,.09-.4.966.966,0,0,1,.258-.313,1.227,1.227,0,0,1,.4-.205,1.7,1.7,0,0,1,.513-.073,1.577,1.577,0,0,1,.54.087,1.2,1.2,0,0,1,.4.235,1.052,1.052,0,0,1,.252.346,1.021,1.021,0,0,1,.088.418h-.616a.657.657,0,0,0-.04-.238.48.48,0,0,0-.123-.188.556.556,0,0,0-.21-.123.926.926,0,0,0-.3-.044,1.032,1.032,0,0,0-.284.036.564.564,0,0,0-.2.1.388.388,0,0,0-.117.156.5.5,0,0,0-.038.195.392.392,0,0,0,.186.329,2,2,0,0,0,.571.244,3.291,3.291,0,0,1,.52.2,1.425,1.425,0,0,1,.364.243.862.862,0,0,1,.216.3.967.967,0,0,1,.072.382.9.9,0,0,1-.089.4.877.877,0,0,1-.254.3,1.2,1.2,0,0,1-.4.193,1.976,1.976,0,0,1-1.028,0,1.431,1.431,0,0,1-.446-.21,1.093,1.093,0,0,1-.319-.351.964.964,0,0,1-.121-.493h.618a.642.642,0,0,0,.06.289.537.537,0,0,0,.163.2A.7.7,0,0,0,26,6.213a1.283,1.283,0,0,0,.3.035.759.759,0,0,0,.484-.131A.419.419,0,0,0,26.946,5.771Z" fill="#fff"/>
      <path d="M30.675,3.631H29.567V6.687h-.613V3.631h-1.1v-.5h2.82Z" fill="#fff"/>
      <path d="M33.22,5.1H31.759V6.194h1.707v.493H31.142V3.133h2.306v.5H31.759v.981H33.22Z" fill="#fff"/>
      <path d="M34.77,3.133,35.8,5.857l1.023-2.724h.8V6.687H37V5.515l.062-1.567L36.012,6.687H35.57L34.524,3.951l.06,1.564V6.687h-.615V3.133Z" fill="#fff"/>
      <path d="M40.2,5.771a.547.547,0,0,0-.031-.191.379.379,0,0,0-.116-.154.921.921,0,0,0-.232-.136,3.483,3.483,0,0,0-.38-.136,3.6,3.6,0,0,1-.468-.174,1.566,1.566,0,0,1-.37-.226.97.97,0,0,1-.243-.3.829.829,0,0,1-.088-.386.872.872,0,0,1,.091-.4.966.966,0,0,1,.258-.313,1.217,1.217,0,0,1,.4-.205,1.7,1.7,0,0,1,.513-.073,1.571,1.571,0,0,1,.539.087,1.2,1.2,0,0,1,.4.235,1.052,1.052,0,0,1,.252.346,1.02,1.02,0,0,1,.087.418H40.2a.657.657,0,0,0-.04-.238.48.48,0,0,0-.123-.188.564.564,0,0,0-.21-.123.928.928,0,0,0-.3-.044,1.03,1.03,0,0,0-.283.036.564.564,0,0,0-.2.1.388.388,0,0,0-.117.156.481.481,0,0,0-.038.195.392.392,0,0,0,.186.329,2,2,0,0,0,.571.244,3.291,3.291,0,0,1,.52.2,1.425,1.425,0,0,1,.364.243.862.862,0,0,1,.216.3.967.967,0,0,1,.071.382.9.9,0,0,1-.088.4.877.877,0,0,1-.254.3,1.211,1.211,0,0,1-.4.193,1.976,1.976,0,0,1-1.028,0,1.421,1.421,0,0,1-.446-.21,1.093,1.093,0,0,1-.319-.351.964.964,0,0,1-.121-.493h.618a.642.642,0,0,0,.06.289.537.537,0,0,0,.163.2.7.7,0,0,0,.246.113,1.277,1.277,0,0,0,.3.035.759.759,0,0,0,.484-.131A.419.419,0,0,0,40.2,5.771Z" fill="#fff"/>
      <path d="M43.249,7.154H41.011V6.687h2.238Z" fill="#fff"/>
      <path d="M45.61,5.859H44.234l-.29.828H43.3l1.343-3.554H45.2l1.345,3.554H45.9Zm-1.2-.5h1.031l-.516-1.474Z" fill="#fff"/>
      <path d="M49.61,5.53a1.519,1.519,0,0,1-.123.483,1.135,1.135,0,0,1-.27.381,1.207,1.207,0,0,1-.424.252,1.7,1.7,0,0,1-.577.09,1.435,1.435,0,0,1-.592-.118,1.265,1.265,0,0,1-.452-.337,1.511,1.511,0,0,1-.286-.529,2.219,2.219,0,0,1-.1-.7V4.768a2.19,2.19,0,0,1,.1-.694,1.516,1.516,0,0,1,.293-.531,1.293,1.293,0,0,1,.46-.34,1.486,1.486,0,0,1,.6-.119,1.573,1.573,0,0,1,.562.092,1.147,1.147,0,0,1,.679.64,1.649,1.649,0,0,1,.124.49H49a1.444,1.444,0,0,0-.067-.3.65.65,0,0,0-.136-.228.568.568,0,0,0-.223-.143.932.932,0,0,0-.324-.049.806.806,0,0,0-.367.08.712.712,0,0,0-.263.229,1.079,1.079,0,0,0-.157.37,2.161,2.161,0,0,0-.053.5v.293a2.317,2.317,0,0,0,.047.484,1.133,1.133,0,0,0,.144.372.686.686,0,0,0,.251.24.738.738,0,0,0,.369.086,1.064,1.064,0,0,0,.338-.047.565.565,0,0,0,.228-.136.6.6,0,0,0,.141-.222A1.375,1.375,0,0,0,49,5.53Z" fill="#fff"/>
      <path d="M52.658,3.631H51.55V6.687h-.612V3.631h-1.1v-.5h2.82Z" fill="#fff"/>
      <path d="M53.777,6.687h-.615V3.133h.615Z" fill="#fff"/>
      <path d="M55.788,5.914l.905-2.781h.677L56.091,6.687h-.6L54.219,3.133H54.9Z" fill="#fff"/>
      <path d="M59.85,5.1H58.389V6.194H60.1v.493H57.772V3.133h2.306v.5H58.389v.981H59.85Z" fill="#fff"/>
      <path d="M61.8,4.319a.32.32,0,0,1,.091-.235.331.331,0,0,1,.254-.094.339.339,0,0,1,.256.094.323.323,0,0,1,.089.235.315.315,0,0,1-.089.231.345.345,0,0,1-.256.091A.392.392,0,0,1,62,4.617a.3.3,0,0,1-.176-.171A.35.35,0,0,1,61.8,4.319Zm0,2.073a.326.326,0,0,1,.091-.236.335.335,0,0,1,.254-.094.343.343,0,0,1,.256.094.329.329,0,0,1,.089.236.318.318,0,0,1-.089.231.35.35,0,0,1-.256.092A.392.392,0,0,1,62,6.689a.285.285,0,0,1-.108-.068.3.3,0,0,1-.068-.1A.354.354,0,0,1,61.8,6.392Z" fill="#fff"/>
      <path d="M64.371,4.319a.32.32,0,0,1,.091-.235.334.334,0,0,1,.254-.094.339.339,0,0,1,.256.094.324.324,0,0,1,.09.235.316.316,0,0,1-.09.231.345.345,0,0,1-.256.091.392.392,0,0,1-.146-.024.311.311,0,0,1-.108-.068.306.306,0,0,1-.067-.1A.33.33,0,0,1,64.371,4.319Zm0,2.073a.326.326,0,0,1,.091-.236.338.338,0,0,1,.254-.094.343.343,0,0,1,.256.094.329.329,0,0,1,.09.236.319.319,0,0,1-.09.231.35.35,0,0,1-.256.092.392.392,0,0,1-.146-.026.285.285,0,0,1-.108-.068.292.292,0,0,1-.067-.1A.334.334,0,0,1,64.371,6.392Z" fill="#fff"/>
    </g>
  </g>
</svg>
