<svg xmlns="http://www.w3.org/2000/svg" xmlns:xlink="http://www.w3.org/1999/xlink" width="508.048" height="279.511" viewBox="0 0 508.048 279.511">
  <defs>
    <clipPath id="a">
      <rect x="118.215" y="65.946" width="271.619" height="147.62" fill="none"/>
    </clipPath>
  </defs>
  <g>
    <g>
      <g>
        <g>
          <g>
            <path d="M90.006,34.138v5.821H84.184a.1.1,0,1,1,0-.209H89.8V34.138a.105.105,0,1,1,.21,0Z" fill="#efefef"/>
            <path d="M90.006,239.551v5.822a.1.1,0,1,1-.21,0v-5.612H84.184a.1.1,0,0,1,0-.21Z" fill="#efefef"/>
          </g>
          <g>
            <path d="M423.969,239.656a.1.1,0,0,1-.105.1h-5.612v5.612a.105.105,0,0,1-.21,0v-5.822h5.822A.1.1,0,0,1,423.969,239.656Z" fill="#efefef"/>
            <path d="M423.969,39.855a.1.1,0,0,1-.105.1h-5.822V34.138a.1.1,0,0,1,.21,0V39.75h5.612A.1.1,0,0,1,423.969,39.855Z" fill="#efefef"/>
          </g>
        </g>
        <g>
          <g>
            <polygon points="79.819 62.933 79.819 63.213 56.309 63.213 0 6.904 0 0 0.28 0 0.28 6.788 56.425 62.933 79.819 62.933" fill="#efefef"/>
            <path d="M32.588,39.432H30.925L22.089,30.6V28.844L32.678,39.432Z" fill="#efefef"/>
          </g>
          <g>
            <polygon points="79.819 216.298 79.819 216.578 56.425 216.578 0.28 272.723 0.28 279.511 0 279.511 0 272.607 56.309 216.298 79.819 216.298" fill="#efefef"/>
            <path d="M32.588,240.079H30.925l-8.836,8.836v1.752l10.589-10.588Z" fill="#efefef"/>
          </g>
          <g>
            <polygon points="508.048 272.607 508.048 279.511 507.768 279.511 507.768 272.723 451.623 216.578 428.229 216.578 428.229 216.298 451.739 216.298 508.048 272.607" fill="#efefef"/>
            <path d="M475.46,240.079h1.663l8.836,8.836v1.752l-10.588-10.588Z" fill="#efefef"/>
          </g>
          <g>
            <polygon points="508.048 0 508.048 6.904 451.739 63.213 428.229 63.213 428.229 62.933 451.623 62.933 507.768 6.788 507.768 0 508.048 0" fill="#efefef"/>
            <path d="M475.46,39.432h1.663l8.836-8.836V28.844L475.371,39.432Z" fill="#efefef"/>
          </g>
        </g>
      </g>
      <g opacity="0.3">
        <g clip-path="url(#a)">
          <circle cx="116.14" cy="70.036" r="0.512" fill="#fff"/>
          <circle cx="124.676" cy="70.036" r="0.512" fill="#fff"/>
          <circle cx="133.211" cy="70.036" r="0.512" fill="#fff"/>
          <circle cx="141.747" cy="70.036" r="0.512" fill="#fff"/>
          <circle cx="150.282" cy="70.036" r="0.512" fill="#fff"/>
          <circle cx="158.817" cy="70.036" r="0.512" fill="#fff"/>
          <circle cx="167.353" cy="70.036" r="0.512" fill="#fff"/>
          <circle cx="175.888" cy="70.036" r="0.512" fill="#fff"/>
          <circle cx="184.424" cy="70.036" r="0.512" fill="#fff"/>
          <circle cx="192.959" cy="70.036" r="0.512" fill="#fff"/>
          <circle cx="201.494" cy="70.036" r="0.512" fill="#fff"/>
          <circle cx="210.03" cy="70.036" r="0.512" fill="#fff"/>
          <circle cx="218.565" cy="70.036" r="0.512" fill="#fff"/>
          <circle cx="227.1" cy="70.036" r="0.512" fill="#fff"/>
          <circle cx="235.636" cy="70.036" r="0.512" fill="#fff"/>
          <circle cx="244.171" cy="70.036" r="0.512" fill="#fff"/>
          <circle cx="252.707" cy="70.036" r="0.512" fill="#fff"/>
          <circle cx="261.242" cy="70.036" r="0.512" fill="#fff"/>
          <circle cx="269.777" cy="70.036" r="0.512" fill="#fff"/>
          <circle cx="278.313" cy="70.036" r="0.512" fill="#fff"/>
          <circle cx="286.848" cy="70.036" r="0.512" fill="#fff"/>
          <circle cx="295.384" cy="70.036" r="0.512" fill="#fff"/>
          <circle cx="303.919" cy="70.036" r="0.512" fill="#fff"/>
          <circle cx="312.454" cy="70.036" r="0.512" fill="#fff"/>
          <circle cx="320.99" cy="70.036" r="0.512" fill="#fff"/>
          <circle cx="329.525" cy="70.036" r="0.512" fill="#fff"/>
          <circle cx="338.06" cy="70.036" r="0.512" fill="#fff"/>
          <circle cx="346.596" cy="70.036" r="0.512" fill="#fff"/>
          <circle cx="355.131" cy="70.036" r="0.512" fill="#fff"/>
          <circle cx="363.667" cy="70.036" r="0.512" fill="#fff"/>
          <circle cx="372.202" cy="70.036" r="0.512" fill="#fff"/>
          <circle cx="380.737" cy="70.036" r="0.512" fill="#fff"/>
          <circle cx="389.273" cy="70.036" r="0.512" fill="#fff"/>
          <circle cx="116.14" cy="78.571" r="0.512" fill="#fff"/>
          <circle cx="124.676" cy="78.571" r="0.512" fill="#fff"/>
          <circle cx="133.211" cy="78.571" r="0.512" fill="#fff"/>
          <circle cx="141.747" cy="78.571" r="0.512" fill="#fff"/>
          <circle cx="150.282" cy="78.571" r="0.512" fill="#fff"/>
          <circle cx="158.817" cy="78.571" r="0.512" fill="#fff"/>
          <circle cx="167.353" cy="78.571" r="0.512" fill="#fff"/>
          <circle cx="175.888" cy="78.571" r="0.512" fill="#fff"/>
          <circle cx="184.424" cy="78.571" r="0.512" fill="#fff"/>
          <circle cx="192.959" cy="78.571" r="0.512" fill="#fff"/>
          <circle cx="201.494" cy="78.571" r="0.512" fill="#fff"/>
          <circle cx="210.03" cy="78.571" r="0.512" fill="#fff"/>
          <circle cx="218.565" cy="78.571" r="0.512" fill="#fff"/>
          <circle cx="227.1" cy="78.571" r="0.512" fill="#fff"/>
          <circle cx="235.636" cy="78.571" r="0.512" fill="#fff"/>
          <circle cx="244.171" cy="78.571" r="0.512" fill="#fff"/>
          <circle cx="252.707" cy="78.571" r="0.512" fill="#fff"/>
          <circle cx="261.242" cy="78.571" r="0.512" fill="#fff"/>
          <circle cx="269.777" cy="78.571" r="0.512" fill="#fff"/>
          <circle cx="278.313" cy="78.571" r="0.512" fill="#fff"/>
          <circle cx="286.848" cy="78.571" r="0.512" fill="#fff"/>
          <circle cx="295.384" cy="78.571" r="0.512" fill="#fff"/>
          <circle cx="303.919" cy="78.571" r="0.512" fill="#fff"/>
          <circle cx="312.454" cy="78.571" r="0.512" fill="#fff"/>
          <circle cx="320.99" cy="78.571" r="0.512" fill="#fff"/>
          <circle cx="329.525" cy="78.571" r="0.512" fill="#fff"/>
          <circle cx="338.06" cy="78.571" r="0.512" fill="#fff"/>
          <circle cx="346.596" cy="78.571" r="0.512" fill="#fff"/>
          <circle cx="355.131" cy="78.571" r="0.512" fill="#fff"/>
          <circle cx="363.667" cy="78.571" r="0.512" fill="#fff"/>
          <circle cx="372.202" cy="78.571" r="0.512" fill="#fff"/>
          <circle cx="380.737" cy="78.571" r="0.512" fill="#fff"/>
          <circle cx="389.273" cy="78.571" r="0.512" fill="#fff"/>
          <circle cx="116.14" cy="87.107" r="0.512" fill="#fff"/>
          <circle cx="124.676" cy="87.107" r="0.512" fill="#fff"/>
          <circle cx="133.211" cy="87.107" r="0.512" fill="#fff"/>
          <circle cx="141.747" cy="87.107" r="0.512" fill="#fff"/>
          <circle cx="150.282" cy="87.107" r="0.512" fill="#fff"/>
          <circle cx="158.817" cy="87.107" r="0.512" fill="#fff"/>
          <circle cx="167.353" cy="87.107" r="0.512" fill="#fff"/>
          <circle cx="175.888" cy="87.107" r="0.512" fill="#fff"/>
          <circle cx="184.424" cy="87.107" r="0.512" fill="#fff"/>
          <circle cx="192.959" cy="87.107" r="0.512" fill="#fff"/>
          <circle cx="201.494" cy="87.107" r="0.512" fill="#fff"/>
          <circle cx="210.03" cy="87.107" r="0.512" fill="#fff"/>
          <circle cx="218.565" cy="87.107" r="0.512" fill="#fff"/>
          <circle cx="227.1" cy="87.107" r="0.512" fill="#fff"/>
          <circle cx="235.636" cy="87.107" r="0.512" fill="#fff"/>
          <circle cx="244.171" cy="87.107" r="0.512" fill="#fff"/>
          <circle cx="252.707" cy="87.107" r="0.512" fill="#fff"/>
          <circle cx="261.242" cy="87.107" r="0.512" fill="#fff"/>
          <circle cx="269.777" cy="87.107" r="0.512" fill="#fff"/>
          <circle cx="278.313" cy="87.107" r="0.512" fill="#fff"/>
          <circle cx="286.848" cy="87.107" r="0.512" fill="#fff"/>
          <circle cx="295.384" cy="87.107" r="0.512" fill="#fff"/>
          <circle cx="303.919" cy="87.107" r="0.512" fill="#fff"/>
          <circle cx="312.454" cy="87.107" r="0.512" fill="#fff"/>
          <circle cx="320.99" cy="87.107" r="0.512" fill="#fff"/>
          <circle cx="329.525" cy="87.107" r="0.512" fill="#fff"/>
          <circle cx="338.06" cy="87.107" r="0.512" fill="#fff"/>
          <circle cx="346.596" cy="87.107" r="0.512" fill="#fff"/>
          <circle cx="355.131" cy="87.107" r="0.512" fill="#fff"/>
          <circle cx="363.667" cy="87.107" r="0.512" fill="#fff"/>
          <circle cx="372.202" cy="87.107" r="0.512" fill="#fff"/>
          <circle cx="380.737" cy="87.107" r="0.512" fill="#fff"/>
          <circle cx="389.273" cy="87.107" r="0.512" fill="#fff"/>
          <circle cx="116.14" cy="95.642" r="0.512" fill="#fff"/>
          <circle cx="124.676" cy="95.642" r="0.512" fill="#fff"/>
          <circle cx="133.211" cy="95.642" r="0.512" fill="#fff"/>
          <circle cx="141.747" cy="95.642" r="0.512" fill="#fff"/>
          <circle cx="150.282" cy="95.642" r="0.512" fill="#fff"/>
          <circle cx="158.817" cy="95.642" r="0.512" fill="#fff"/>
          <circle cx="167.353" cy="95.642" r="0.512" fill="#fff"/>
          <circle cx="175.888" cy="95.642" r="0.512" fill="#fff"/>
          <circle cx="184.424" cy="95.642" r="0.512" fill="#fff"/>
          <circle cx="192.959" cy="95.642" r="0.512" fill="#fff"/>
          <circle cx="201.494" cy="95.642" r="0.512" fill="#fff"/>
          <circle cx="210.03" cy="95.642" r="0.512" fill="#fff"/>
          <circle cx="218.565" cy="95.642" r="0.512" fill="#fff"/>
          <circle cx="227.1" cy="95.642" r="0.512" fill="#fff"/>
          <circle cx="235.636" cy="95.642" r="0.512" fill="#fff"/>
          <circle cx="244.171" cy="95.642" r="0.512" fill="#fff"/>
          <circle cx="252.707" cy="95.642" r="0.512" fill="#fff"/>
          <circle cx="261.242" cy="95.642" r="0.512" fill="#fff"/>
          <circle cx="269.777" cy="95.642" r="0.512" fill="#fff"/>
          <circle cx="278.313" cy="95.642" r="0.512" fill="#fff"/>
          <circle cx="286.848" cy="95.642" r="0.512" fill="#fff"/>
          <circle cx="295.384" cy="95.642" r="0.512" fill="#fff"/>
          <circle cx="303.919" cy="95.642" r="0.512" fill="#fff"/>
          <circle cx="312.454" cy="95.642" r="0.512" fill="#fff"/>
          <circle cx="320.99" cy="95.642" r="0.512" fill="#fff"/>
          <circle cx="329.525" cy="95.642" r="0.512" fill="#fff"/>
          <circle cx="338.06" cy="95.642" r="0.512" fill="#fff"/>
          <circle cx="346.596" cy="95.642" r="0.512" fill="#fff"/>
          <circle cx="355.131" cy="95.642" r="0.512" fill="#fff"/>
          <circle cx="363.667" cy="95.642" r="0.512" fill="#fff"/>
          <circle cx="372.202" cy="95.642" r="0.512" fill="#fff"/>
          <circle cx="380.737" cy="95.642" r="0.512" fill="#fff"/>
          <circle cx="389.273" cy="95.642" r="0.512" fill="#fff"/>
          <circle cx="116.14" cy="104.178" r="0.512" fill="#fff"/>
          <circle cx="124.676" cy="104.178" r="0.512" fill="#fff"/>
          <circle cx="133.211" cy="104.178" r="0.512" fill="#fff"/>
          <circle cx="141.747" cy="104.178" r="0.512" fill="#fff"/>
          <circle cx="150.282" cy="104.178" r="0.512" fill="#fff"/>
          <circle cx="158.817" cy="104.178" r="0.512" fill="#fff"/>
          <circle cx="167.353" cy="104.178" r="0.512" fill="#fff"/>
          <circle cx="175.888" cy="104.178" r="0.512" fill="#fff"/>
          <circle cx="184.424" cy="104.178" r="0.512" fill="#fff"/>
          <circle cx="192.959" cy="104.178" r="0.512" fill="#fff"/>
          <circle cx="201.494" cy="104.178" r="0.512" fill="#fff"/>
          <circle cx="210.03" cy="104.178" r="0.512" fill="#fff"/>
          <circle cx="218.565" cy="104.178" r="0.512" fill="#fff"/>
          <circle cx="227.1" cy="104.178" r="0.512" fill="#fff"/>
          <circle cx="235.636" cy="104.178" r="0.512" fill="#fff"/>
          <circle cx="244.171" cy="104.178" r="0.512" fill="#fff"/>
          <circle cx="252.707" cy="104.178" r="0.512" fill="#fff"/>
          <circle cx="261.242" cy="104.178" r="0.512" fill="#fff"/>
          <circle cx="269.777" cy="104.178" r="0.512" fill="#fff"/>
          <circle cx="278.313" cy="104.178" r="0.512" fill="#fff"/>
          <circle cx="286.848" cy="104.178" r="0.512" fill="#fff"/>
          <circle cx="295.384" cy="104.178" r="0.512" fill="#fff"/>
          <circle cx="303.919" cy="104.178" r="0.512" fill="#fff"/>
          <circle cx="312.454" cy="104.178" r="0.512" fill="#fff"/>
          <circle cx="320.99" cy="104.178" r="0.512" fill="#fff"/>
          <circle cx="329.525" cy="104.178" r="0.512" fill="#fff"/>
          <circle cx="338.06" cy="104.178" r="0.512" fill="#fff"/>
          <circle cx="346.596" cy="104.178" r="0.512" fill="#fff"/>
          <circle cx="355.131" cy="104.178" r="0.512" fill="#fff"/>
          <circle cx="363.667" cy="104.178" r="0.512" fill="#fff"/>
          <circle cx="372.202" cy="104.178" r="0.512" fill="#fff"/>
          <circle cx="380.737" cy="104.178" r="0.512" fill="#fff"/>
          <circle cx="389.273" cy="104.178" r="0.512" fill="#fff"/>
          <circle cx="116.14" cy="112.713" r="0.512" fill="#fff"/>
          <circle cx="124.676" cy="112.713" r="0.512" fill="#fff"/>
          <circle cx="133.211" cy="112.713" r="0.512" fill="#fff"/>
          <circle cx="141.747" cy="112.713" r="0.512" fill="#fff"/>
          <circle cx="150.282" cy="112.713" r="0.512" fill="#fff"/>
          <circle cx="158.817" cy="112.713" r="0.512" fill="#fff"/>
          <circle cx="167.353" cy="112.713" r="0.512" fill="#fff"/>
          <circle cx="175.888" cy="112.713" r="0.512" fill="#fff"/>
          <circle cx="184.424" cy="112.713" r="0.512" fill="#fff"/>
          <circle cx="192.959" cy="112.713" r="0.512" fill="#fff"/>
          <circle cx="201.494" cy="112.713" r="0.512" fill="#fff"/>
          <circle cx="210.03" cy="112.713" r="0.512" fill="#fff"/>
          <circle cx="218.565" cy="112.713" r="0.512" fill="#fff"/>
          <circle cx="227.1" cy="112.713" r="0.512" fill="#fff"/>
          <circle cx="235.636" cy="112.713" r="0.512" fill="#fff"/>
          <circle cx="244.171" cy="112.713" r="0.512" fill="#fff"/>
          <circle cx="252.707" cy="112.713" r="0.512" fill="#fff"/>
          <circle cx="261.242" cy="112.713" r="0.512" fill="#fff"/>
          <circle cx="269.777" cy="112.713" r="0.512" fill="#fff"/>
          <circle cx="278.313" cy="112.713" r="0.512" fill="#fff"/>
          <circle cx="286.848" cy="112.713" r="0.512" fill="#fff"/>
          <circle cx="295.384" cy="112.713" r="0.512" fill="#fff"/>
          <circle cx="303.919" cy="112.713" r="0.512" fill="#fff"/>
          <circle cx="312.454" cy="112.713" r="0.512" fill="#fff"/>
          <circle cx="320.99" cy="112.713" r="0.512" fill="#fff"/>
          <circle cx="329.525" cy="112.713" r="0.512" fill="#fff"/>
          <circle cx="338.06" cy="112.713" r="0.512" fill="#fff"/>
          <circle cx="346.596" cy="112.713" r="0.512" fill="#fff"/>
          <circle cx="355.131" cy="112.713" r="0.512" fill="#fff"/>
          <circle cx="363.667" cy="112.713" r="0.512" fill="#fff"/>
          <circle cx="372.202" cy="112.713" r="0.512" fill="#fff"/>
          <circle cx="380.737" cy="112.713" r="0.512" fill="#fff"/>
          <circle cx="389.273" cy="112.713" r="0.512" fill="#fff"/>
          <circle cx="116.14" cy="121.248" r="0.512" fill="#fff"/>
          <circle cx="124.676" cy="121.248" r="0.512" fill="#fff"/>
          <circle cx="133.211" cy="121.248" r="0.512" fill="#fff"/>
          <circle cx="141.747" cy="121.248" r="0.512" fill="#fff"/>
          <circle cx="150.282" cy="121.248" r="0.512" fill="#fff"/>
          <circle cx="158.817" cy="121.248" r="0.512" fill="#fff"/>
          <circle cx="167.353" cy="121.248" r="0.512" fill="#fff"/>
          <circle cx="175.888" cy="121.248" r="0.512" fill="#fff"/>
          <circle cx="184.424" cy="121.248" r="0.512" fill="#fff"/>
          <circle cx="192.959" cy="121.248" r="0.512" fill="#fff"/>
          <circle cx="201.494" cy="121.248" r="0.512" fill="#fff"/>
          <circle cx="210.03" cy="121.248" r="0.512" fill="#fff"/>
          <circle cx="218.565" cy="121.248" r="0.512" fill="#fff"/>
          <circle cx="227.1" cy="121.248" r="0.512" fill="#fff"/>
          <circle cx="235.636" cy="121.248" r="0.512" fill="#fff"/>
          <circle cx="244.171" cy="121.248" r="0.512" fill="#fff"/>
          <circle cx="252.707" cy="121.248" r="0.512" fill="#fff"/>
          <circle cx="261.242" cy="121.248" r="0.512" fill="#fff"/>
          <circle cx="269.777" cy="121.248" r="0.512" fill="#fff"/>
          <circle cx="278.313" cy="121.248" r="0.512" fill="#fff"/>
          <circle cx="286.848" cy="121.248" r="0.512" fill="#fff"/>
          <circle cx="295.384" cy="121.248" r="0.512" fill="#fff"/>
          <circle cx="303.919" cy="121.248" r="0.512" fill="#fff"/>
          <circle cx="312.454" cy="121.248" r="0.512" fill="#fff"/>
          <circle cx="320.99" cy="121.248" r="0.512" fill="#fff"/>
          <circle cx="329.525" cy="121.248" r="0.512" fill="#fff"/>
          <circle cx="338.06" cy="121.248" r="0.512" fill="#fff"/>
          <circle cx="346.596" cy="121.248" r="0.512" fill="#fff"/>
          <circle cx="355.131" cy="121.248" r="0.512" fill="#fff"/>
          <circle cx="363.667" cy="121.248" r="0.512" fill="#fff"/>
          <circle cx="372.202" cy="121.248" r="0.512" fill="#fff"/>
          <circle cx="380.737" cy="121.248" r="0.512" fill="#fff"/>
          <circle cx="389.273" cy="121.248" r="0.512" fill="#fff"/>
          <circle cx="116.14" cy="129.784" r="0.512" fill="#fff"/>
          <circle cx="124.676" cy="129.784" r="0.512" fill="#fff"/>
          <circle cx="133.211" cy="129.784" r="0.512" fill="#fff"/>
          <circle cx="141.747" cy="129.784" r="0.512" fill="#fff"/>
          <circle cx="150.282" cy="129.784" r="0.512" fill="#fff"/>
          <circle cx="158.817" cy="129.784" r="0.512" fill="#fff"/>
          <circle cx="167.353" cy="129.784" r="0.512" fill="#fff"/>
          <circle cx="175.888" cy="129.784" r="0.512" fill="#fff"/>
          <circle cx="184.424" cy="129.784" r="0.512" fill="#fff"/>
          <circle cx="192.959" cy="129.784" r="0.512" fill="#fff"/>
          <circle cx="201.494" cy="129.784" r="0.512" fill="#fff"/>
          <circle cx="210.03" cy="129.784" r="0.512" fill="#fff"/>
          <circle cx="218.565" cy="129.784" r="0.512" fill="#fff"/>
          <circle cx="227.1" cy="129.784" r="0.512" fill="#fff"/>
          <circle cx="235.636" cy="129.784" r="0.512" fill="#fff"/>
          <circle cx="244.171" cy="129.784" r="0.512" fill="#fff"/>
          <circle cx="252.707" cy="129.784" r="0.512" fill="#fff"/>
          <circle cx="261.242" cy="129.784" r="0.512" fill="#fff"/>
          <circle cx="269.777" cy="129.784" r="0.512" fill="#fff"/>
          <circle cx="278.313" cy="129.784" r="0.512" fill="#fff"/>
          <circle cx="286.848" cy="129.784" r="0.512" fill="#fff"/>
          <circle cx="295.384" cy="129.784" r="0.512" fill="#fff"/>
          <circle cx="303.919" cy="129.784" r="0.512" fill="#fff"/>
          <circle cx="312.454" cy="129.784" r="0.512" fill="#fff"/>
          <circle cx="320.99" cy="129.784" r="0.512" fill="#fff"/>
          <circle cx="329.525" cy="129.784" r="0.512" fill="#fff"/>
          <circle cx="338.06" cy="129.784" r="0.512" fill="#fff"/>
          <circle cx="346.596" cy="129.784" r="0.512" fill="#fff"/>
          <circle cx="355.131" cy="129.784" r="0.512" fill="#fff"/>
          <circle cx="363.667" cy="129.784" r="0.512" fill="#fff"/>
          <circle cx="372.202" cy="129.784" r="0.512" fill="#fff"/>
          <circle cx="380.737" cy="129.784" r="0.512" fill="#fff"/>
          <circle cx="389.273" cy="129.784" r="0.512" fill="#fff"/>
          <circle cx="116.14" cy="138.319" r="0.512" fill="#fff"/>
          <circle cx="124.676" cy="138.319" r="0.512" fill="#fff"/>
          <circle cx="133.211" cy="138.319" r="0.512" fill="#fff"/>
          <circle cx="141.747" cy="138.319" r="0.512" fill="#fff"/>
          <circle cx="150.282" cy="138.319" r="0.512" fill="#fff"/>
          <circle cx="158.817" cy="138.319" r="0.512" fill="#fff"/>
          <circle cx="167.353" cy="138.319" r="0.512" fill="#fff"/>
          <circle cx="175.888" cy="138.319" r="0.512" fill="#fff"/>
          <circle cx="184.424" cy="138.319" r="0.512" fill="#fff"/>
          <circle cx="192.959" cy="138.319" r="0.512" fill="#fff"/>
          <circle cx="201.494" cy="138.319" r="0.512" fill="#fff"/>
          <circle cx="210.03" cy="138.319" r="0.512" fill="#fff"/>
          <circle cx="218.565" cy="138.319" r="0.512" fill="#fff"/>
          <circle cx="227.1" cy="138.319" r="0.512" fill="#fff"/>
          <circle cx="235.636" cy="138.319" r="0.512" fill="#fff"/>
          <circle cx="244.171" cy="138.319" r="0.512" fill="#fff"/>
          <circle cx="252.707" cy="138.319" r="0.512" fill="#fff"/>
          <circle cx="261.242" cy="138.319" r="0.512" fill="#fff"/>
          <circle cx="269.777" cy="138.319" r="0.512" fill="#fff"/>
          <circle cx="278.313" cy="138.319" r="0.512" fill="#fff"/>
          <circle cx="286.848" cy="138.319" r="0.512" fill="#fff"/>
          <circle cx="295.384" cy="138.319" r="0.512" fill="#fff"/>
          <circle cx="303.919" cy="138.319" r="0.512" fill="#fff"/>
          <circle cx="312.454" cy="138.319" r="0.512" fill="#fff"/>
          <circle cx="320.99" cy="138.319" r="0.512" fill="#fff"/>
          <circle cx="329.525" cy="138.319" r="0.512" fill="#fff"/>
          <circle cx="338.06" cy="138.319" r="0.512" fill="#fff"/>
          <circle cx="346.596" cy="138.319" r="0.512" fill="#fff"/>
          <circle cx="355.131" cy="138.319" r="0.512" fill="#fff"/>
          <circle cx="363.667" cy="138.319" r="0.512" fill="#fff"/>
          <circle cx="372.202" cy="138.319" r="0.512" fill="#fff"/>
          <circle cx="380.737" cy="138.319" r="0.512" fill="#fff"/>
          <circle cx="389.273" cy="138.319" r="0.512" fill="#fff"/>
          <circle cx="116.14" cy="146.855" r="0.512" fill="#fff"/>
          <circle cx="124.676" cy="146.855" r="0.512" fill="#fff"/>
          <circle cx="133.211" cy="146.855" r="0.512" fill="#fff"/>
          <circle cx="141.747" cy="146.855" r="0.512" fill="#fff"/>
          <circle cx="150.282" cy="146.855" r="0.512" fill="#fff"/>
          <circle cx="158.817" cy="146.855" r="0.512" fill="#fff"/>
          <circle cx="167.353" cy="146.855" r="0.512" fill="#fff"/>
          <circle cx="175.888" cy="146.855" r="0.512" fill="#fff"/>
          <circle cx="184.424" cy="146.855" r="0.512" fill="#fff"/>
          <circle cx="192.959" cy="146.855" r="0.512" fill="#fff"/>
          <circle cx="201.494" cy="146.855" r="0.512" fill="#fff"/>
          <circle cx="210.03" cy="146.855" r="0.512" fill="#fff"/>
          <circle cx="218.565" cy="146.855" r="0.512" fill="#fff"/>
          <circle cx="227.1" cy="146.855" r="0.512" fill="#fff"/>
          <circle cx="235.636" cy="146.855" r="0.512" fill="#fff"/>
          <circle cx="244.171" cy="146.855" r="0.512" fill="#fff"/>
          <circle cx="252.707" cy="146.855" r="0.512" fill="#fff"/>
          <circle cx="261.242" cy="146.855" r="0.512" fill="#fff"/>
          <circle cx="269.777" cy="146.855" r="0.512" fill="#fff"/>
          <circle cx="278.313" cy="146.855" r="0.512" fill="#fff"/>
          <circle cx="286.848" cy="146.855" r="0.512" fill="#fff"/>
          <circle cx="295.384" cy="146.855" r="0.512" fill="#fff"/>
          <circle cx="303.919" cy="146.855" r="0.512" fill="#fff"/>
          <circle cx="312.454" cy="146.855" r="0.512" fill="#fff"/>
          <circle cx="320.99" cy="146.855" r="0.512" fill="#fff"/>
          <circle cx="329.525" cy="146.855" r="0.512" fill="#fff"/>
          <circle cx="338.06" cy="146.855" r="0.512" fill="#fff"/>
          <circle cx="346.596" cy="146.855" r="0.512" fill="#fff"/>
          <circle cx="355.131" cy="146.855" r="0.512" fill="#fff"/>
          <circle cx="363.667" cy="146.855" r="0.512" fill="#fff"/>
          <circle cx="372.202" cy="146.855" r="0.512" fill="#fff"/>
          <circle cx="380.737" cy="146.855" r="0.512" fill="#fff"/>
          <circle cx="389.273" cy="146.855" r="0.512" fill="#fff"/>
          <circle cx="116.14" cy="155.39" r="0.512" fill="#fff"/>
          <circle cx="124.676" cy="155.39" r="0.512" fill="#fff"/>
          <circle cx="133.211" cy="155.39" r="0.512" fill="#fff"/>
          <circle cx="141.747" cy="155.39" r="0.512" fill="#fff"/>
          <circle cx="150.282" cy="155.39" r="0.512" fill="#fff"/>
          <circle cx="158.817" cy="155.39" r="0.512" fill="#fff"/>
          <circle cx="167.353" cy="155.39" r="0.512" fill="#fff"/>
          <circle cx="175.888" cy="155.39" r="0.512" fill="#fff"/>
          <circle cx="184.424" cy="155.39" r="0.512" fill="#fff"/>
          <circle cx="192.959" cy="155.39" r="0.512" fill="#fff"/>
          <circle cx="201.494" cy="155.39" r="0.512" fill="#fff"/>
          <circle cx="210.03" cy="155.39" r="0.512" fill="#fff"/>
          <circle cx="218.565" cy="155.39" r="0.512" fill="#fff"/>
          <circle cx="227.1" cy="155.39" r="0.512" fill="#fff"/>
          <circle cx="235.636" cy="155.39" r="0.512" fill="#fff"/>
          <circle cx="244.171" cy="155.39" r="0.512" fill="#fff"/>
          <circle cx="252.707" cy="155.39" r="0.512" fill="#fff"/>
          <circle cx="261.242" cy="155.39" r="0.512" fill="#fff"/>
          <circle cx="269.777" cy="155.39" r="0.512" fill="#fff"/>
          <circle cx="278.313" cy="155.39" r="0.512" fill="#fff"/>
          <circle cx="286.848" cy="155.39" r="0.512" fill="#fff"/>
          <circle cx="295.384" cy="155.39" r="0.512" fill="#fff"/>
          <circle cx="303.919" cy="155.39" r="0.512" fill="#fff"/>
          <circle cx="312.454" cy="155.39" r="0.512" fill="#fff"/>
          <circle cx="320.99" cy="155.39" r="0.512" fill="#fff"/>
          <circle cx="329.525" cy="155.39" r="0.512" fill="#fff"/>
          <circle cx="338.06" cy="155.39" r="0.512" fill="#fff"/>
          <circle cx="346.596" cy="155.39" r="0.512" fill="#fff"/>
          <circle cx="355.131" cy="155.39" r="0.512" fill="#fff"/>
          <circle cx="363.667" cy="155.39" r="0.512" fill="#fff"/>
          <circle cx="372.202" cy="155.39" r="0.512" fill="#fff"/>
          <circle cx="380.737" cy="155.39" r="0.512" fill="#fff"/>
          <circle cx="389.273" cy="155.39" r="0.512" fill="#fff"/>
          <circle cx="116.14" cy="163.925" r="0.512" fill="#fff"/>
          <circle cx="124.676" cy="163.925" r="0.512" fill="#fff"/>
          <circle cx="133.211" cy="163.925" r="0.512" fill="#fff"/>
          <circle cx="141.747" cy="163.925" r="0.512" fill="#fff"/>
          <circle cx="150.282" cy="163.925" r="0.512" fill="#fff"/>
          <circle cx="158.817" cy="163.925" r="0.512" fill="#fff"/>
          <circle cx="167.353" cy="163.925" r="0.512" fill="#fff"/>
          <circle cx="175.888" cy="163.925" r="0.512" fill="#fff"/>
          <circle cx="184.424" cy="163.925" r="0.512" fill="#fff"/>
          <circle cx="192.959" cy="163.925" r="0.512" fill="#fff"/>
          <circle cx="201.494" cy="163.925" r="0.512" fill="#fff"/>
          <circle cx="210.03" cy="163.925" r="0.512" fill="#fff"/>
          <circle cx="218.565" cy="163.925" r="0.512" fill="#fff"/>
          <circle cx="227.1" cy="163.925" r="0.512" fill="#fff"/>
          <circle cx="235.636" cy="163.925" r="0.512" fill="#fff"/>
          <circle cx="244.171" cy="163.925" r="0.512" fill="#fff"/>
          <circle cx="252.707" cy="163.925" r="0.512" fill="#fff"/>
          <circle cx="261.242" cy="163.925" r="0.512" fill="#fff"/>
          <circle cx="269.777" cy="163.925" r="0.512" fill="#fff"/>
          <circle cx="278.313" cy="163.925" r="0.512" fill="#fff"/>
          <circle cx="286.848" cy="163.925" r="0.512" fill="#fff"/>
          <circle cx="295.384" cy="163.925" r="0.512" fill="#fff"/>
          <circle cx="303.919" cy="163.925" r="0.512" fill="#fff"/>
          <circle cx="312.454" cy="163.925" r="0.512" fill="#fff"/>
          <circle cx="320.99" cy="163.925" r="0.512" fill="#fff"/>
          <circle cx="329.525" cy="163.925" r="0.512" fill="#fff"/>
          <circle cx="338.06" cy="163.925" r="0.512" fill="#fff"/>
          <circle cx="346.596" cy="163.925" r="0.512" fill="#fff"/>
          <circle cx="355.131" cy="163.925" r="0.512" fill="#fff"/>
          <circle cx="363.667" cy="163.925" r="0.512" fill="#fff"/>
          <circle cx="372.202" cy="163.925" r="0.512" fill="#fff"/>
          <circle cx="380.737" cy="163.925" r="0.512" fill="#fff"/>
          <circle cx="389.273" cy="163.925" r="0.512" fill="#fff"/>
          <circle cx="116.14" cy="172.461" r="0.512" fill="#fff"/>
          <circle cx="124.676" cy="172.461" r="0.512" fill="#fff"/>
          <circle cx="133.211" cy="172.461" r="0.512" fill="#fff"/>
          <circle cx="141.747" cy="172.461" r="0.512" fill="#fff"/>
          <circle cx="150.282" cy="172.461" r="0.512" fill="#fff"/>
          <circle cx="158.817" cy="172.461" r="0.512" fill="#fff"/>
          <circle cx="167.353" cy="172.461" r="0.512" fill="#fff"/>
          <circle cx="175.888" cy="172.461" r="0.512" fill="#fff"/>
          <circle cx="184.424" cy="172.461" r="0.512" fill="#fff"/>
          <circle cx="192.959" cy="172.461" r="0.512" fill="#fff"/>
          <circle cx="201.494" cy="172.461" r="0.512" fill="#fff"/>
          <circle cx="210.03" cy="172.461" r="0.512" fill="#fff"/>
          <circle cx="218.565" cy="172.461" r="0.512" fill="#fff"/>
          <circle cx="227.1" cy="172.461" r="0.512" fill="#fff"/>
          <circle cx="235.636" cy="172.461" r="0.512" fill="#fff"/>
          <circle cx="244.171" cy="172.461" r="0.512" fill="#fff"/>
          <circle cx="252.707" cy="172.461" r="0.512" fill="#fff"/>
          <circle cx="261.242" cy="172.461" r="0.512" fill="#fff"/>
          <circle cx="269.777" cy="172.461" r="0.512" fill="#fff"/>
          <circle cx="278.313" cy="172.461" r="0.512" fill="#fff"/>
          <circle cx="286.848" cy="172.461" r="0.512" fill="#fff"/>
          <circle cx="295.384" cy="172.461" r="0.512" fill="#fff"/>
          <circle cx="303.919" cy="172.461" r="0.512" fill="#fff"/>
          <circle cx="312.454" cy="172.461" r="0.512" fill="#fff"/>
          <circle cx="320.99" cy="172.461" r="0.512" fill="#fff"/>
          <circle cx="329.525" cy="172.461" r="0.512" fill="#fff"/>
          <circle cx="338.06" cy="172.461" r="0.512" fill="#fff"/>
          <circle cx="346.596" cy="172.461" r="0.512" fill="#fff"/>
          <circle cx="355.131" cy="172.461" r="0.512" fill="#fff"/>
          <circle cx="363.667" cy="172.461" r="0.512" fill="#fff"/>
          <circle cx="372.202" cy="172.461" r="0.512" fill="#fff"/>
          <circle cx="380.737" cy="172.461" r="0.512" fill="#fff"/>
          <circle cx="389.273" cy="172.461" r="0.512" fill="#fff"/>
          <circle cx="116.14" cy="180.996" r="0.512" fill="#fff"/>
          <circle cx="124.676" cy="180.996" r="0.512" fill="#fff"/>
          <circle cx="133.211" cy="180.996" r="0.512" fill="#fff"/>
          <circle cx="141.747" cy="180.996" r="0.512" fill="#fff"/>
          <circle cx="150.282" cy="180.996" r="0.512" fill="#fff"/>
          <circle cx="158.817" cy="180.996" r="0.512" fill="#fff"/>
          <circle cx="167.353" cy="180.996" r="0.512" fill="#fff"/>
          <circle cx="175.888" cy="180.996" r="0.512" fill="#fff"/>
          <circle cx="184.424" cy="180.996" r="0.512" fill="#fff"/>
          <circle cx="192.959" cy="180.996" r="0.512" fill="#fff"/>
          <circle cx="201.494" cy="180.996" r="0.512" fill="#fff"/>
          <circle cx="210.03" cy="180.996" r="0.512" fill="#fff"/>
          <circle cx="218.565" cy="180.996" r="0.512" fill="#fff"/>
          <circle cx="227.1" cy="180.996" r="0.512" fill="#fff"/>
          <circle cx="235.636" cy="180.996" r="0.512" fill="#fff"/>
          <circle cx="244.171" cy="180.996" r="0.512" fill="#fff"/>
          <circle cx="252.707" cy="180.996" r="0.512" fill="#fff"/>
          <circle cx="261.242" cy="180.996" r="0.512" fill="#fff"/>
          <circle cx="269.777" cy="180.996" r="0.512" fill="#fff"/>
          <circle cx="278.313" cy="180.996" r="0.512" fill="#fff"/>
          <circle cx="286.848" cy="180.996" r="0.512" fill="#fff"/>
          <circle cx="295.384" cy="180.996" r="0.512" fill="#fff"/>
          <circle cx="303.919" cy="180.996" r="0.512" fill="#fff"/>
          <circle cx="312.454" cy="180.996" r="0.512" fill="#fff"/>
          <circle cx="320.99" cy="180.996" r="0.512" fill="#fff"/>
          <circle cx="329.525" cy="180.996" r="0.512" fill="#fff"/>
          <circle cx="338.06" cy="180.996" r="0.512" fill="#fff"/>
          <circle cx="346.596" cy="180.996" r="0.512" fill="#fff"/>
          <circle cx="355.131" cy="180.996" r="0.512" fill="#fff"/>
          <circle cx="363.667" cy="180.996" r="0.512" fill="#fff"/>
          <circle cx="372.202" cy="180.996" r="0.512" fill="#fff"/>
          <circle cx="380.737" cy="180.996" r="0.512" fill="#fff"/>
          <circle cx="389.273" cy="180.996" r="0.512" fill="#fff"/>
          <circle cx="116.14" cy="189.531" r="0.512" fill="#fff"/>
          <circle cx="124.676" cy="189.531" r="0.512" fill="#fff"/>
          <circle cx="133.211" cy="189.531" r="0.512" fill="#fff"/>
          <circle cx="141.747" cy="189.531" r="0.512" fill="#fff"/>
          <circle cx="150.282" cy="189.531" r="0.512" fill="#fff"/>
          <circle cx="158.817" cy="189.531" r="0.512" fill="#fff"/>
          <circle cx="167.353" cy="189.531" r="0.512" fill="#fff"/>
          <circle cx="175.888" cy="189.531" r="0.512" fill="#fff"/>
          <circle cx="184.424" cy="189.531" r="0.512" fill="#fff"/>
          <circle cx="192.959" cy="189.531" r="0.512" fill="#fff"/>
          <circle cx="201.494" cy="189.531" r="0.512" fill="#fff"/>
          <circle cx="210.03" cy="189.531" r="0.512" fill="#fff"/>
          <circle cx="218.565" cy="189.531" r="0.512" fill="#fff"/>
          <circle cx="227.1" cy="189.531" r="0.512" fill="#fff"/>
          <circle cx="235.636" cy="189.531" r="0.512" fill="#fff"/>
          <circle cx="244.171" cy="189.531" r="0.512" fill="#fff"/>
          <circle cx="252.707" cy="189.531" r="0.512" fill="#fff"/>
          <circle cx="261.242" cy="189.531" r="0.512" fill="#fff"/>
          <circle cx="269.777" cy="189.531" r="0.512" fill="#fff"/>
          <circle cx="278.313" cy="189.531" r="0.512" fill="#fff"/>
          <circle cx="286.848" cy="189.531" r="0.512" fill="#fff"/>
          <circle cx="295.384" cy="189.531" r="0.512" fill="#fff"/>
          <circle cx="303.919" cy="189.531" r="0.512" fill="#fff"/>
          <circle cx="312.454" cy="189.531" r="0.512" fill="#fff"/>
          <circle cx="320.99" cy="189.531" r="0.512" fill="#fff"/>
          <circle cx="329.525" cy="189.531" r="0.512" fill="#fff"/>
          <circle cx="338.06" cy="189.531" r="0.512" fill="#fff"/>
          <circle cx="346.596" cy="189.531" r="0.512" fill="#fff"/>
          <circle cx="355.131" cy="189.531" r="0.512" fill="#fff"/>
          <circle cx="363.667" cy="189.531" r="0.512" fill="#fff"/>
          <circle cx="372.202" cy="189.531" r="0.512" fill="#fff"/>
          <circle cx="380.737" cy="189.531" r="0.512" fill="#fff"/>
          <circle cx="389.273" cy="189.531" r="0.512" fill="#fff"/>
          <circle cx="116.14" cy="198.067" r="0.512" fill="#fff"/>
          <circle cx="124.676" cy="198.067" r="0.512" fill="#fff"/>
          <circle cx="133.211" cy="198.067" r="0.512" fill="#fff"/>
          <circle cx="141.747" cy="198.067" r="0.512" fill="#fff"/>
          <circle cx="150.282" cy="198.067" r="0.512" fill="#fff"/>
          <circle cx="158.817" cy="198.067" r="0.512" fill="#fff"/>
          <circle cx="167.353" cy="198.067" r="0.512" fill="#fff"/>
          <circle cx="175.888" cy="198.067" r="0.512" fill="#fff"/>
          <circle cx="184.424" cy="198.067" r="0.512" fill="#fff"/>
          <circle cx="192.959" cy="198.067" r="0.512" fill="#fff"/>
          <circle cx="201.494" cy="198.067" r="0.512" fill="#fff"/>
          <circle cx="210.03" cy="198.067" r="0.512" fill="#fff"/>
          <circle cx="218.565" cy="198.067" r="0.512" fill="#fff"/>
          <circle cx="227.1" cy="198.067" r="0.512" fill="#fff"/>
          <circle cx="235.636" cy="198.067" r="0.512" fill="#fff"/>
          <circle cx="244.171" cy="198.067" r="0.512" fill="#fff"/>
          <circle cx="252.707" cy="198.067" r="0.512" fill="#fff"/>
          <circle cx="261.242" cy="198.067" r="0.512" fill="#fff"/>
          <circle cx="269.777" cy="198.067" r="0.512" fill="#fff"/>
          <circle cx="278.313" cy="198.067" r="0.512" fill="#fff"/>
          <circle cx="286.848" cy="198.067" r="0.512" fill="#fff"/>
          <circle cx="295.384" cy="198.067" r="0.512" fill="#fff"/>
          <circle cx="303.919" cy="198.067" r="0.512" fill="#fff"/>
          <circle cx="312.454" cy="198.067" r="0.512" fill="#fff"/>
          <circle cx="320.99" cy="198.067" r="0.512" fill="#fff"/>
          <circle cx="329.525" cy="198.067" r="0.512" fill="#fff"/>
          <circle cx="338.06" cy="198.067" r="0.512" fill="#fff"/>
          <circle cx="346.596" cy="198.067" r="0.512" fill="#fff"/>
          <circle cx="355.131" cy="198.067" r="0.512" fill="#fff"/>
          <circle cx="363.667" cy="198.067" r="0.512" fill="#fff"/>
          <circle cx="372.202" cy="198.067" r="0.512" fill="#fff"/>
          <circle cx="380.737" cy="198.067" r="0.512" fill="#fff"/>
          <circle cx="389.273" cy="198.067" r="0.512" fill="#fff"/>
          <circle cx="116.14" cy="206.602" r="0.512" fill="#fff"/>
          <circle cx="124.676" cy="206.602" r="0.512" fill="#fff"/>
          <circle cx="133.211" cy="206.602" r="0.512" fill="#fff"/>
          <circle cx="141.747" cy="206.602" r="0.512" fill="#fff"/>
          <circle cx="150.282" cy="206.602" r="0.512" fill="#fff"/>
          <circle cx="158.817" cy="206.602" r="0.512" fill="#fff"/>
          <circle cx="167.353" cy="206.602" r="0.512" fill="#fff"/>
          <circle cx="175.888" cy="206.602" r="0.512" fill="#fff"/>
          <circle cx="184.424" cy="206.602" r="0.512" fill="#fff"/>
          <circle cx="192.959" cy="206.602" r="0.512" fill="#fff"/>
          <circle cx="201.494" cy="206.602" r="0.512" fill="#fff"/>
          <circle cx="210.03" cy="206.602" r="0.512" fill="#fff"/>
          <circle cx="218.565" cy="206.602" r="0.512" fill="#fff"/>
          <circle cx="227.1" cy="206.602" r="0.512" fill="#fff"/>
          <circle cx="235.636" cy="206.602" r="0.512" fill="#fff"/>
          <circle cx="244.171" cy="206.602" r="0.512" fill="#fff"/>
          <circle cx="252.707" cy="206.602" r="0.512" fill="#fff"/>
          <circle cx="261.242" cy="206.602" r="0.512" fill="#fff"/>
          <circle cx="269.777" cy="206.602" r="0.512" fill="#fff"/>
          <circle cx="278.313" cy="206.602" r="0.512" fill="#fff"/>
          <circle cx="286.848" cy="206.602" r="0.512" fill="#fff"/>
          <circle cx="295.384" cy="206.602" r="0.512" fill="#fff"/>
          <circle cx="303.919" cy="206.602" r="0.512" fill="#fff"/>
          <circle cx="312.454" cy="206.602" r="0.512" fill="#fff"/>
          <circle cx="320.99" cy="206.602" r="0.512" fill="#fff"/>
          <circle cx="329.525" cy="206.602" r="0.512" fill="#fff"/>
          <circle cx="338.06" cy="206.602" r="0.512" fill="#fff"/>
          <circle cx="346.596" cy="206.602" r="0.512" fill="#fff"/>
          <circle cx="355.131" cy="206.602" r="0.512" fill="#fff"/>
          <circle cx="363.667" cy="206.602" r="0.512" fill="#fff"/>
          <circle cx="372.202" cy="206.602" r="0.512" fill="#fff"/>
          <circle cx="380.737" cy="206.602" r="0.512" fill="#fff"/>
          <circle cx="389.273" cy="206.602" r="0.512" fill="#fff"/>
          <circle cx="116.14" cy="215.138" r="0.512" fill="#fff"/>
          <circle cx="124.676" cy="215.138" r="0.512" fill="#fff"/>
          <circle cx="133.211" cy="215.138" r="0.512" fill="#fff"/>
          <circle cx="141.747" cy="215.138" r="0.512" fill="#fff"/>
          <circle cx="150.282" cy="215.138" r="0.512" fill="#fff"/>
          <circle cx="158.817" cy="215.138" r="0.512" fill="#fff"/>
          <circle cx="167.353" cy="215.138" r="0.512" fill="#fff"/>
          <circle cx="175.888" cy="215.138" r="0.512" fill="#fff"/>
          <circle cx="184.424" cy="215.138" r="0.512" fill="#fff"/>
          <circle cx="192.959" cy="215.138" r="0.512" fill="#fff"/>
          <circle cx="201.494" cy="215.138" r="0.512" fill="#fff"/>
          <circle cx="210.03" cy="215.138" r="0.512" fill="#fff"/>
          <circle cx="218.565" cy="215.138" r="0.512" fill="#fff"/>
          <circle cx="227.1" cy="215.138" r="0.512" fill="#fff"/>
          <circle cx="235.636" cy="215.138" r="0.512" fill="#fff"/>
          <circle cx="244.171" cy="215.138" r="0.512" fill="#fff"/>
          <circle cx="252.707" cy="215.138" r="0.512" fill="#fff"/>
          <circle cx="261.242" cy="215.138" r="0.512" fill="#fff"/>
          <circle cx="269.777" cy="215.138" r="0.512" fill="#fff"/>
          <circle cx="278.313" cy="215.138" r="0.512" fill="#fff"/>
          <circle cx="286.848" cy="215.138" r="0.512" fill="#fff"/>
          <circle cx="295.384" cy="215.138" r="0.512" fill="#fff"/>
          <circle cx="303.919" cy="215.138" r="0.512" fill="#fff"/>
          <circle cx="312.454" cy="215.138" r="0.512" fill="#fff"/>
          <circle cx="320.99" cy="215.138" r="0.512" fill="#fff"/>
          <circle cx="329.525" cy="215.138" r="0.512" fill="#fff"/>
          <circle cx="338.06" cy="215.138" r="0.512" fill="#fff"/>
          <circle cx="346.596" cy="215.138" r="0.512" fill="#fff"/>
          <circle cx="355.131" cy="215.138" r="0.512" fill="#fff"/>
          <circle cx="363.667" cy="215.138" r="0.512" fill="#fff"/>
          <circle cx="372.202" cy="215.138" r="0.512" fill="#fff"/>
          <circle cx="380.737" cy="215.138" r="0.512" fill="#fff"/>
          <circle cx="389.273" cy="215.138" r="0.512" fill="#fff"/>
        </g>
      </g>
    </g>
    <g>
      <rect x="157.826" y="36.578" width="1.349" height="1.349" fill="#efefef"/>
      <rect x="165.603" y="36.578" width="1.349" height="1.349" fill="#efefef"/>
      <rect x="341.096" y="36.578" width="1.349" height="1.349" fill="#efefef"/>
      <rect x="348.873" y="36.578" width="1.349" height="1.349" fill="#efefef"/>
    </g>
    <g>
      <rect x="157.826" y="241.84" width="1.349" height="1.349" fill="#efefef"/>
      <rect x="165.603" y="241.84" width="1.349" height="1.349" fill="#efefef"/>
      <rect x="341.096" y="241.84" width="1.349" height="1.349" fill="#efefef"/>
      <rect x="348.873" y="241.84" width="1.349" height="1.349" fill="#efefef"/>
    </g>
  </g>
</svg>
