<svg xmlns="http://www.w3.org/2000/svg" width="237.754" height="200.472" viewBox="0 0 237.754 200.472">
  <g>
    <g opacity="0.3">
      <rect x="118.751" y="144.649" width="0.25" height="1.87" fill="#fff"/>
    </g>
    <g opacity="0.3">
      <rect x="121.616" y="144.559" width="0.25" height="1.87" transform="translate(-8.879 7.916) rotate(-3.593)" fill="#fff"/>
    </g>
    <g opacity="0.3">
      <rect x="124.469" y="144.29" width="0.25" height="1.87" transform="translate(-17.221 16.764) rotate(-7.201)" fill="#fff"/>
    </g>
    <g opacity="0.3">
      <rect x="127.3" y="143.841" width="0.251" height="1.869" transform="translate(-24.827 26.385) rotate(-10.779)" fill="#fff"/>
    </g>
    <g opacity="0.3">
      <polygon points="130.333 145.088 129.869 143.277 130.111 143.214 130.576 145.025 130.333 145.088" fill="#fff"/>
    </g>
    <g opacity="0.3">
      <polygon points="133.144 144.279 132.566 142.501 132.804 142.424 133.382 144.202 133.144 144.279" fill="#fff"/>
    </g>
    <g opacity="0.3">
      <rect x="135.546" y="141.446" width="0.25" height="1.87" transform="translate(-42.889 59.947) rotate(-21.601)" fill="#fff"/>
    </g>
    <g opacity="0.3">
      <rect x="138.176" y="140.307" width="0.25" height="1.87" transform="translate(-47 72.394) rotate(-25.22)" fill="#fff"/>
    </g>
    <g opacity="0.3">
      <rect x="140.73" y="139.007" width="0.25" height="1.87" transform="translate(-49.982 85.125) rotate(-28.787)" fill="#fff"/>
    </g>
    <g opacity="0.3">
      <rect x="143.197" y="137.547" width="0.25" height="1.87" transform="translate(-51.894 98.365) rotate(-32.403)" fill="#fff"/>
    </g>
    <g opacity="0.3">
      <polygon points="146.14 137.701 145.042 136.188 145.245 136.042 146.343 137.555 146.14 137.701" fill="#fff"/>
    </g>
    <g opacity="0.3">
      <rect x="115.077" y="145.369" width="1.87" height="0.25" transform="translate(-36.435 252.205) rotate(-86.424)" fill="#fff"/>
    </g>
    <g opacity="0.3">
      <rect x="112.224" y="145.099" width="1.87" height="0.25" transform="translate(-45.071 239.343) rotate(-82.819)" fill="#fff"/>
    </g>
    <g opacity="0.3">
      <rect x="109.393" y="144.651" width="1.87" height="0.251" transform="translate(-52.535 226.066) rotate(-79.216)" fill="#fff"/>
    </g>
    <g opacity="0.3">
      <rect x="106.596" y="144.026" width="1.87" height="0.25" transform="translate(-58.917 212.251) rotate(-75.53)" fill="#fff"/>
    </g>
    <g opacity="0.3">
      <polygon points="104.609 144.279 104.371 144.202 104.949 142.424 105.187 142.501 104.609 144.279" fill="#fff"/>
    </g>
    <g opacity="0.3">
      <rect x="101.148" y="142.256" width="1.87" height="0.25" transform="translate(-67.843 185.023) rotate(-68.448)" fill="#fff"/>
    </g>
    <g opacity="0.3">
      <rect x="98.517" y="141.117" width="1.87" height="0.25" transform="translate(-70.674 171.194) rotate(-64.835)" fill="#fff"/>
    </g>
    <g opacity="0.3">
      <rect x="95.964" y="139.817" width="1.87" height="0.25" transform="translate(-72.405 157.522) rotate(-61.228)" fill="#fff"/>
    </g>
    <g opacity="0.3">
      <rect x="93.497" y="138.357" width="1.87" height="0.25" transform="translate(-73.09 144.054) rotate(-57.615)" fill="#fff"/>
    </g>
    <g opacity="0.3">
      <polygon points="91.614 137.701 91.411 137.555 92.509 136.042 92.712 136.188 91.614 137.701" fill="#fff"/>
    </g>
    <g opacity="0.3">
      <rect x="118.751" y="53.953" width="0.25" height="1.87" fill="#fff"/>
    </g>
    <g opacity="0.3">
      <rect x="115.887" y="54.043" width="0.25" height="1.87" transform="translate(-3.217 7.379) rotate(-3.593)" fill="#fff"/>
    </g>
    <g opacity="0.3">
      <rect x="113.034" y="54.312" width="0.25" height="1.87" transform="translate(-6.033 14.62) rotate(-7.201)" fill="#fff"/>
    </g>
    <g opacity="0.3">
      <rect x="110.203" y="54.761" width="0.251" height="1.87" transform="translate(-8.485 21.671) rotate(-10.805)" fill="#fff"/>
    </g>
    <g opacity="0.3">
      <rect x="107.406" y="55.386" width="0.25" height="1.87" transform="translate(-10.64 28.562) rotate(-14.424)" fill="#fff"/>
    </g>
    <g opacity="0.3">
      <polygon points="104.949 58.048 104.371 56.27 104.609 56.193 105.187 57.971 104.949 58.048" fill="#fff"/>
    </g>
    <g opacity="0.3">
      <rect x="101.958" y="57.157" width="0.25" height="1.869" transform="translate(-14.21 41.616) rotate(-21.579)" fill="#fff"/>
    </g>
    <g opacity="0.3">
      <rect x="99.327" y="58.295" width="0.25" height="1.87" transform="translate(-15.752 47.968) rotate(-25.193)" fill="#fff"/>
    </g>
    <g opacity="0.3">
      <rect x="96.774" y="59.596" width="0.25" height="1.87" transform="translate(-17.174 54.143) rotate(-28.787)" fill="#fff"/>
    </g>
    <g opacity="0.3">
      <rect x="94.307" y="61.055" width="0.25" height="1.87" transform="translate(-18.515 60.256) rotate(-32.403)" fill="#fff"/>
    </g>
    <g opacity="0.3">
      <polygon points="92.509 64.43 91.411 62.917 91.614 62.771 92.712 64.284 92.509 64.43" fill="#fff"/>
    </g>
    <g opacity="0.3">
      <rect x="120.807" y="54.852" width="1.87" height="0.25" transform="translate(59.277 173.053) rotate(-86.424)" fill="#fff"/>
    </g>
    <g opacity="0.3">
      <rect x="123.659" y="55.122" width="1.87" height="0.25" transform="translate(54.206 171.959) rotate(-82.819)" fill="#fff"/>
    </g>
    <g opacity="0.3">
      <rect x="126.49" y="55.571" width="1.87" height="0.251" transform="translate(48.87 170.449) rotate(-79.216)" fill="#fff"/>
    </g>
    <g opacity="0.3">
      <polygon points="130.111 57.258 129.869 57.195 130.333 55.384 130.576 55.447 130.111 57.258" fill="#fff"/>
    </g>
    <g opacity="0.3">
      <polygon points="132.804 58.048 132.566 57.971 133.144 56.193 133.382 56.27 132.804 58.048" fill="#fff"/>
    </g>
    <g opacity="0.3">
      <rect x="134.736" y="57.966" width="1.87" height="0.25" transform="translate(31.803 162.937) rotate(-68.448)" fill="#fff"/>
    </g>
    <g opacity="0.3">
      <rect x="137.366" y="59.105" width="1.87" height="0.25" transform="translate(25.883 159.218) rotate(-64.835)" fill="#fff"/>
    </g>
    <g opacity="0.3">
      <rect x="139.92" y="60.406" width="1.87" height="0.25" transform="translate(20.001 154.862) rotate(-61.228)" fill="#fff"/>
    </g>
    <g opacity="0.3">
      <rect x="142.387" y="61.865" width="1.87" height="0.25" transform="translate(14.209 149.818) rotate(-57.615)" fill="#fff"/>
    </g>
    <g opacity="0.3">
      <polygon points="145.245 64.43 145.042 64.284 146.14 62.771 146.343 62.917 145.245 64.43" fill="#fff"/>
    </g>
    <polygon points="146.462 163.463 141.205 158.205 136.468 158.205 132.019 162.654 125.601 162.654 124.45 161.503 113.303 161.503 112.153 162.654 105.735 162.654 105.698 162.618 101.286 158.205 96.549 158.205 91.292 163.463 91.114 163.286 96.446 157.955 101.389 157.955 101.426 157.992 105.838 162.404 112.049 162.404 113.2 161.253 124.553 161.253 125.705 162.404 131.916 162.404 136.365 157.955 141.308 157.955 141.345 157.992 146.64 163.286 146.462 163.463" fill="#fff"/>
    <circle cx="22.437" cy="99.021" r="0.615" fill="#fff"/>
    <circle cx="22.437" cy="101.451" r="0.615" fill="#fff"/>
    <circle cx="24.805" cy="99.021" r="0.615" fill="#fff"/>
    <circle cx="24.805" cy="101.451" r="0.615" fill="#fff"/>
    <circle cx="215.316" cy="99.021" r="0.615" fill="#fff"/>
    <circle cx="215.316" cy="101.451" r="0.615" fill="#fff"/>
    <circle cx="212.949" cy="99.021" r="0.615" fill="#fff"/>
    <circle cx="212.949" cy="101.451" r="0.615" fill="#fff"/>
    <g>
      <polygon points="237.223 200.472 163.669 126.917 74.084 126.917 0.53 200.472 0 199.941 73.774 126.167 163.98 126.167 164.09 126.277 237.754 199.941 237.223 200.472" fill="#fff"/>
      <path d="M118.876,176.312a76.076,76.076,0,1,1,76.077-76.076A76.161,76.161,0,0,1,118.876,176.312Zm0-151.152a75.076,75.076,0,1,0,75.077,75.076A75.161,75.161,0,0,0,118.876,25.16Z" fill="#fff"/>
      <path d="M118.877,187.906a87.932,87.932,0,0,1-85.855-69.847l-3.6-3.6V86.106L33,82.53a87.692,87.692,0,0,1,171.76,0l3.576,3.576v28.351l-3.6,3.6A87.93,87.93,0,0,1,118.877,187.906ZM30.17,114.146l3.541,3.542.023.11a86.939,86.939,0,0,0,170.285,0l.023-.11,3.541-3.542V86.417L204.068,82.9l-.023-.111a86.942,86.942,0,0,0-170.336,0l-.023.111L30.17,86.417Z" fill="#fff"/>
      <polygon points="163.98 74.304 73.774 74.304 73.664 74.194 0 0.53 0.53 0 74.084 73.554 163.669 73.554 237.223 0 237.754 0.53 163.98 74.304" fill="#fff"/>
    </g>
    <polygon points="141.308 40.789 136.365 40.789 136.328 40.752 131.916 36.34 125.705 36.34 124.553 37.491 121.122 37.491 121.122 36.423 116.632 36.423 116.632 37.491 113.2 37.491 112.049 36.34 105.838 36.34 101.389 40.789 96.446 40.789 96.409 40.752 91.114 35.458 91.292 35.281 96.549 40.539 101.286 40.539 105.735 36.09 112.153 36.09 113.303 37.241 116.382 37.241 116.382 36.173 121.372 36.173 121.372 37.241 124.45 37.241 125.601 36.09 132.019 36.09 132.056 36.126 136.468 40.539 141.205 40.539 146.462 35.281 146.64 35.458 141.308 40.789" fill="#fff"/>
    <circle cx="77.242" cy="70.348" r="0.34" fill="#fff"/>
    <circle cx="75.936" cy="70.348" r="0.34" fill="#fff"/>
    <circle cx="75.936" cy="69.007" r="0.34" fill="#fff"/>
    <circle cx="160.511" cy="70.348" r="0.34" fill="#fff"/>
    <circle cx="161.818" cy="70.348" r="0.34" fill="#fff"/>
    <circle cx="161.818" cy="69.007" r="0.34" fill="#fff"/>
    <circle cx="75.936" cy="129.59" r="0.34" fill="#fff"/>
    <circle cx="77.242" cy="129.59" r="0.34" fill="#fff"/>
    <circle cx="77.242" cy="130.93" r="0.34" fill="#fff"/>
    <circle cx="161.818" cy="129.59" r="0.34" fill="#fff"/>
    <circle cx="160.511" cy="129.59" r="0.34" fill="#fff"/>
    <circle cx="160.511" cy="130.93" r="0.34" fill="#fff"/>
    <polygon points="96.507 117.372 90.839 117.372 90.802 117.335 86.761 113.295 86.939 113.118 90.943 117.122 96.507 117.122 96.507 117.372" fill="#fff"/>
    <polygon points="146.915 117.372 141.246 117.372 141.246 117.122 146.811 117.122 150.814 113.118 150.992 113.295 146.915 117.372" fill="#fff"/>
    <polygon points="86.939 87.984 86.761 87.807 90.839 83.73 96.507 83.73 96.507 83.98 90.943 83.98 86.939 87.984" fill="#fff"/>
    <polygon points="150.814 87.984 146.811 83.98 141.246 83.98 141.246 83.73 146.915 83.73 146.952 83.767 150.992 87.807 150.814 87.984" fill="#fff"/>
    <polygon points="75.487 103.667 74.413 102.592 74.413 99.077 75.507 97.981 75.685 98.158 74.663 99.18 74.663 102.489 75.665 103.49 75.487 103.667" fill="#fff"/>
    <polygon points="162.265 103.667 162.089 103.49 163.091 102.489 163.091 99.18 162.069 98.158 162.245 97.981 163.341 99.077 163.341 102.592 162.265 103.667" fill="#fff"/>
    <rect x="32.639" y="94.602" width="0.613" height="0.613" fill="#fff"/>
    <rect x="32.639" y="96.828" width="0.613" height="0.143" fill="#fff"/>
    <rect x="32.639" y="97.152" width="0.613" height="0.143" fill="#fff"/>
    <rect x="32.639" y="100.68" width="0.613" height="2.477" fill="#fff"/>
    <rect x="32.639" y="97.956" width="0.613" height="0.143" fill="#fff"/>
    <rect x="32.639" y="98.813" width="0.613" height="0.143" fill="#fff"/>
    <rect x="32.639" y="99.095" width="0.613" height="0.143" fill="#fff"/>
    <rect x="32.639" y="99.378" width="0.613" height="0.143" fill="#fff"/>
    <rect x="32.639" y="99.66" width="0.613" height="0.143" fill="#fff"/>
    <rect x="32.639" y="104.035" width="0.613" height="0.143" fill="#fff"/>
    <rect x="32.639" y="104.529" width="0.613" height="0.143" fill="#fff"/>
    <rect x="204.501" y="94.602" width="0.613" height="0.613" transform="translate(409.616 189.817) rotate(180)" fill="#fff"/>
    <rect x="204.501" y="96.828" width="0.613" height="0.143" transform="translate(409.616 193.798) rotate(180)" fill="#fff"/>
    <rect x="204.501" y="97.152" width="0.613" height="0.143" transform="translate(409.616 194.446) rotate(180)" fill="#fff"/>
    <rect x="204.501" y="100.68" width="0.613" height="2.477" transform="translate(409.616 203.837) rotate(180)" fill="#fff"/>
    <rect x="204.501" y="97.956" width="0.613" height="0.143" transform="translate(409.616 196.055) rotate(180)" fill="#fff"/>
    <rect x="204.501" y="98.813" width="0.613" height="0.143" transform="translate(409.616 197.769) rotate(180)" fill="#fff"/>
    <rect x="204.501" y="99.095" width="0.613" height="0.143" transform="translate(409.616 198.334) rotate(180)" fill="#fff"/>
    <rect x="204.501" y="99.378" width="0.613" height="0.143" transform="translate(409.616 198.898) rotate(180)" fill="#fff"/>
    <rect x="204.501" y="99.66" width="0.613" height="0.143" transform="translate(409.616 199.462) rotate(180)" fill="#fff"/>
    <rect x="204.501" y="104.035" width="0.613" height="0.143" transform="translate(409.616 208.213) rotate(180)" fill="#fff"/>
    <rect x="204.501" y="104.529" width="0.613" height="0.143" transform="translate(409.616 209.2) rotate(180)" fill="#fff"/>
    <path d="M119.977,104.524h-1.988l-4.232-7.33.993-1.72h8.464l1,1.72Zm-1.7-.5h1.41l3.943-6.83-.706-1.22H115.04l-.705,1.22Z" fill="#fff"/>
    <path d="M60.313,94.534H53.655V87.876h6.658Zm-6.408-.25h6.158V88.126H53.905Z" fill="#fff"/>
    <polygon points="60.091 94.498 53.691 88.089 53.869 87.913 60.269 94.321 60.091 94.498" fill="#fff"/>
    <rect x="59.697" y="88.001" width="0.491" height="0.491" transform="translate(148.189 28.304) rotate(90)" fill="#fff"/>
    <path d="M60.313,113.772H53.655v-6.658h6.658Zm-6.408-.25h6.158v-6.158H53.905Z" fill="#fff"/>
    <polygon points="60.091 113.736 53.691 107.328 53.869 107.151 60.269 113.559 60.091 113.736" fill="#fff"/>
    <rect x="59.697" y="107.239" width="0.491" height="0.491" transform="translate(167.427 47.542) rotate(90)" fill="#fff"/>
    <path d="M184.03,94.534h-6.658V87.876h6.658Zm-6.408-.25h6.158V88.126h-6.158Z" fill="#fff"/>
    <polygon points="183.807 94.498 177.408 88.089 177.585 87.913 183.985 94.321 183.807 94.498" fill="#fff"/>
    <rect x="183.414" y="88.001" width="0.491" height="0.491" transform="translate(271.906 -95.413) rotate(90)" fill="#fff"/>
    <path d="M184.03,113.772h-6.658v-6.658h6.658Zm-6.408-.25h6.158v-6.158h-6.158Z" fill="#fff"/>
    <polygon points="183.807 113.736 177.408 107.328 177.585 107.151 183.985 113.559 183.807 113.736" fill="#fff"/>
    <rect x="183.414" y="107.239" width="0.491" height="0.491" transform="translate(291.144 -76.174) rotate(90)" fill="#fff"/>
    <path d="M63.086,90.358h-.2v-.976l-.3.1v-.171l.474-.174C63.086,89.139,63.086,90.358,63.086,90.358Z" fill="#fff"/>
    <path d="M64.327,90.358h-.818v-.139l.4-.432c.033-.037.061-.069.083-.1a.641.641,0,0,0,.053-.079.3.3,0,0,0,.027-.066.22.22,0,0,0,.008-.062.243.243,0,0,0-.012-.077.184.184,0,0,0-.035-.061.17.17,0,0,0-.057-.041.2.2,0,0,0-.076-.014.222.222,0,0,0-.092.017.175.175,0,0,0-.064.046.187.187,0,0,0-.038.071.284.284,0,0,0-.013.09h-.2a.416.416,0,0,1,.027-.15.354.354,0,0,1,.08-.123.372.372,0,0,1,.129-.083.461.461,0,0,1,.176-.031.5.5,0,0,1,.161.024.332.332,0,0,1,.12.067.275.275,0,0,1,.074.106.357.357,0,0,1,.026.138.334.334,0,0,1-.019.112.5.5,0,0,1-.051.111.884.884,0,0,1-.077.11c-.03.037-.063.074-.1.112l-.272.29h.565Z" fill="#fff"/>
    <path d="M65.158,90.517h-.765v-.159h.765Z" fill="#fff"/>
    <path d="M65.431,90.2a.545.545,0,0,0,.183-.026.312.312,0,0,0,.119-.073.272.272,0,0,0,.068-.11.538.538,0,0,0,.027-.136.392.392,0,0,1-.107.078.3.3,0,0,1-.132.03.339.339,0,0,1-.154-.034.308.308,0,0,1-.109-.09.38.38,0,0,1-.066-.13.6.6,0,0,1-.021-.154.528.528,0,0,1,.026-.165.409.409,0,0,1,.077-.135.36.36,0,0,1,.123-.09.386.386,0,0,1,.167-.034.362.362,0,0,1,.175.04.356.356,0,0,1,.124.107.476.476,0,0,1,.075.157.692.692,0,0,1,.025.19v.066a1.381,1.381,0,0,1-.011.172.765.765,0,0,1-.04.16.585.585,0,0,1-.072.138.464.464,0,0,1-.112.109.51.51,0,0,1-.156.072.768.768,0,0,1-.208.026c-.016,0-.016-.168-.016-.168Zm.2-.4a.219.219,0,0,0,.063-.01.2.2,0,0,0,.055-.028.163.163,0,0,0,.045-.042.226.226,0,0,0,.035-.052v-.08a.456.456,0,0,0-.017-.128.267.267,0,0,0-.043-.093.185.185,0,0,0-.062-.057.172.172,0,0,0-.159,0,.169.169,0,0,0-.059.054.249.249,0,0,0-.037.081.354.354,0,0,0-.013.1.377.377,0,0,0,.012.1.229.229,0,0,0,.035.081.175.175,0,0,0,.059.056A.162.162,0,0,0,65.632,89.8Z" fill="#fff"/>
    <path d="M67.016,89.846a.955.955,0,0,1-.028.245.457.457,0,0,1-.08.164.3.3,0,0,1-.125.091.446.446,0,0,1-.163.029.437.437,0,0,1-.162-.029.293.293,0,0,1-.126-.091.428.428,0,0,1-.082-.164.909.909,0,0,1-.029-.245v-.2a.863.863,0,0,1,.029-.244.422.422,0,0,1,.08-.163.3.3,0,0,1,.126-.089.442.442,0,0,1,.163-.028.45.45,0,0,1,.163.028.3.3,0,0,1,.126.089.452.452,0,0,1,.08.163.947.947,0,0,1,.028.244Zm-.2-.227a.76.76,0,0,0-.013-.155.282.282,0,0,0-.038-.1.145.145,0,0,0-.06-.056.19.19,0,0,0-.083-.017.186.186,0,0,0-.084.017.147.147,0,0,0-.061.056.325.325,0,0,0-.038.1.76.76,0,0,0-.013.155v.256a.781.781,0,0,0,.013.157.323.323,0,0,0,.039.1.149.149,0,0,0,.062.058.17.17,0,0,0,.083.019.176.176,0,0,0,.084-.019.151.151,0,0,0,.06-.058.349.349,0,0,0,.037-.1.872.872,0,0,0,.012-.157Z" fill="#fff"/>
    <path d="M67.961,89.463a.285.285,0,0,1-.045.159.333.333,0,0,1-.125.11.425.425,0,0,1,.081.051.3.3,0,0,1,.062.067.272.272,0,0,1,.04.082.319.319,0,0,1,.014.094.352.352,0,0,1-.03.15.3.3,0,0,1-.083.109.382.382,0,0,1-.126.067.541.541,0,0,1-.159.023.527.527,0,0,1-.157-.023.359.359,0,0,1-.127-.067.315.315,0,0,1-.084-.109.352.352,0,0,1-.03-.15.319.319,0,0,1,.014-.094.269.269,0,0,1,.039-.082.332.332,0,0,1,.062-.068.36.36,0,0,1,.082-.05.309.309,0,0,1-.124-.11.285.285,0,0,1-.046-.159.346.346,0,0,1,.028-.144.293.293,0,0,1,.077-.106.35.35,0,0,1,.117-.065.516.516,0,0,1,.3,0,.346.346,0,0,1,.118.065.293.293,0,0,1,.077.106A.363.363,0,0,1,67.961,89.463Zm-.176.554a.211.211,0,0,0-.014-.082.176.176,0,0,0-.1-.105.2.2,0,0,0-.08-.015.209.209,0,0,0-.081.015.177.177,0,0,0-.061.041.165.165,0,0,0-.038.064.211.211,0,0,0-.014.082.214.214,0,0,0,.014.082.149.149,0,0,0,.039.062.158.158,0,0,0,.061.038.238.238,0,0,0,.081.014.2.2,0,0,0,.144-.052A.2.2,0,0,0,67.785,90.017Zm-.026-.546a.245.245,0,0,0-.011-.074.182.182,0,0,0-.035-.057.147.147,0,0,0-.053-.038.175.175,0,0,0-.07-.013.16.16,0,0,0-.123.049.188.188,0,0,0-.045.133.217.217,0,0,0,.012.074.172.172,0,0,0,.033.058.164.164,0,0,0,.053.037.2.2,0,0,0,.07.013.205.205,0,0,0,.072-.013.15.15,0,0,0,.052-.037.159.159,0,0,0,.034-.058A.245.245,0,0,0,67.759,89.471Z" fill="#fff"/>
    <path d="M68.222,89.755l.066-.612h.653v.175h-.484l-.034.29a.4.4,0,0,1,.078-.032.354.354,0,0,1,.113-.016.4.4,0,0,1,.154.028.318.318,0,0,1,.115.082.385.385,0,0,1,.072.129.564.564,0,0,1,.025.171.508.508,0,0,1-.025.158.352.352,0,0,1-.2.215.453.453,0,0,1-.176.032.494.494,0,0,1-.145-.022.362.362,0,0,1-.212-.174.385.385,0,0,1-.039-.149h.2a.221.221,0,0,0,.064.136.193.193,0,0,0,.135.047.186.186,0,0,0,.087-.019.176.176,0,0,0,.061-.051.214.214,0,0,0,.037-.079.351.351,0,0,0,.013-.1.327.327,0,0,0-.014-.1.192.192,0,0,0-.041-.076.167.167,0,0,0-.067-.05.219.219,0,0,0-.094-.018.358.358,0,0,0-.061,0A.435.435,0,0,1,68.222,89.755Z" fill="#fff"/>
    <path d="M63.224,91.976h.151v.163h-.151v.27h-.2v-.27H62.5l-.006-.124.524-.821h.21Zm-.521,0h.318v-.507C63.006,91.5,62.7,91.976,62.7,91.976Z" fill="#fff"/>
    <path d="M63.744,91.709h.12a.262.262,0,0,0,.092-.014.18.18,0,0,0,.063-.038.145.145,0,0,0,.039-.058.229.229,0,0,0,.012-.076.19.19,0,0,0-.045-.135.183.183,0,0,0-.139-.048.217.217,0,0,0-.074.012.2.2,0,0,0-.06.034.163.163,0,0,0-.039.054.175.175,0,0,0-.014.07h-.2a.3.3,0,0,1,.029-.133.326.326,0,0,1,.08-.1.351.351,0,0,1,.123-.069.454.454,0,0,1,.155-.026.531.531,0,0,1,.159.023.345.345,0,0,1,.123.065.3.3,0,0,1,.08.108.386.386,0,0,1,.028.15.243.243,0,0,1-.012.074.266.266,0,0,1-.035.072.325.325,0,0,1-.059.065.289.289,0,0,1-.081.052.325.325,0,0,1,.095.048.265.265,0,0,1,.063.067.3.3,0,0,1,.036.08.366.366,0,0,1,.011.088.342.342,0,0,1-.032.152.315.315,0,0,1-.085.112.385.385,0,0,1-.13.069.518.518,0,0,1-.161.024.541.541,0,0,1-.151-.022.364.364,0,0,1-.127-.065.307.307,0,0,1-.088-.107.334.334,0,0,1-.032-.149h.2a.178.178,0,0,0,.015.074.141.141,0,0,0,.04.057.174.174,0,0,0,.062.037.239.239,0,0,0,.082.013.213.213,0,0,0,.149-.05.187.187,0,0,0,.053-.145.242.242,0,0,0-.015-.09.177.177,0,0,0-.045-.062.2.2,0,0,0-.07-.036.345.345,0,0,0-.094-.012h-.12Z" fill="#fff"/>
    <path d="M64.536,91.807l.065-.613h.653v.175H64.77l-.033.291a.384.384,0,0,1,.19-.049.4.4,0,0,1,.155.029.315.315,0,0,1,.115.082.381.381,0,0,1,.071.129.528.528,0,0,1,.025.17.48.48,0,0,1-.025.158.341.341,0,0,1-.2.215.444.444,0,0,1-.177.032.482.482,0,0,1-.144-.022.378.378,0,0,1-.124-.066.345.345,0,0,1-.088-.108.353.353,0,0,1-.039-.149h.2a.217.217,0,0,0,.063.136.193.193,0,0,0,.284-.023.235.235,0,0,0,.037-.078.4.4,0,0,0,.012-.1.371.371,0,0,0-.013-.1.214.214,0,0,0-.041-.076.18.18,0,0,0-.068-.05.227.227,0,0,0-.093-.018.37.37,0,0,0-.062,0A.428.428,0,0,1,64.536,91.807Z" fill="#fff"/>
    <path d="M66.083,91.188v.168a.519.519,0,0,0-.186.027.376.376,0,0,0-.121.075.329.329,0,0,0-.075.112.478.478,0,0,0-.035.136.324.324,0,0,1,.11-.076.371.371,0,0,1,.14-.026.323.323,0,0,1,.153.035.3.3,0,0,1,.108.09.385.385,0,0,1,.064.13.592.592,0,0,1,.02.152.506.506,0,0,1-.026.163.391.391,0,0,1-.076.132.368.368,0,0,1-.124.088.421.421,0,0,1-.167.032.38.38,0,0,1-.176-.039.394.394,0,0,1-.128-.105.477.477,0,0,1-.079-.152.6.6,0,0,1-.027-.181V91.87a1.13,1.13,0,0,1,.014-.176.884.884,0,0,1,.044-.161.622.622,0,0,1,.078-.138.459.459,0,0,1,.114-.11.5.5,0,0,1,.154-.071.7.7,0,0,1,.2-.026Zm-.218.58a.209.209,0,0,0-.067.011.225.225,0,0,0-.058.029.192.192,0,0,0-.046.044.168.168,0,0,0-.031.053v.063a.454.454,0,0,0,.015.128.292.292,0,0,0,.044.092.2.2,0,0,0,.065.056.172.172,0,0,0,.078.018.18.18,0,0,0,.082-.018.188.188,0,0,0,.062-.05.218.218,0,0,0,.038-.078.312.312,0,0,0,.014-.1.332.332,0,0,0-.013-.1.213.213,0,0,0-.037-.079.177.177,0,0,0-.061-.054A.181.181,0,0,0,65.865,91.768Z" fill="#fff"/>
    <path d="M66.919,92.514H66.76l.478-1.32h.16Z" fill="#fff"/>
    <path d="M67.388,92.514h-.159l.478-1.32h.16Z" fill="#fff"/>
    <rect x="174.897" y="109.482" width="0.439" height="4.166" fill="#fff" opacity="0.3"/>
    <rect x="174.015" y="109.482" width="0.439" height="4.166" fill="#fff" opacity="0.3"/>
    <rect x="173.134" y="109.482" width="0.439" height="4.166" fill="#fff" opacity="0.3"/>
    <rect x="172.253" y="109.482" width="0.439" height="4.166" fill="#fff" opacity="0.3"/>
    <rect x="171.372" y="109.482" width="0.439" height="4.166" fill="#fff" opacity="0.3"/>
    <rect x="174.015" y="110.07" width="0.439" height="3.577" fill="#fff"/>
    <rect x="173.134" y="110.912" width="0.439" height="2.735" fill="#fff"/>
    <rect x="172.253" y="111.951" width="0.439" height="1.697" fill="#fff"/>
    <rect x="171.372" y="112.905" width="0.439" height="0.742" fill="#fff"/>
    <path d="M173.136,90.119H172.7v-.164h.437Z" fill="#fff"/>
    <path d="M173.7,90.119h-.438v-.164h.438Z" fill="#fff"/>
    <path d="M173.869,89.744a.111.111,0,0,1,.031-.081.115.115,0,0,1,.087-.032.118.118,0,0,1,.087.032.115.115,0,0,1,.031.081.112.112,0,0,1-.031.079.121.121,0,0,1-.087.031.154.154,0,0,1-.05-.008C173.872,89.774,173.869,89.759,173.869,89.744Zm0,.708a.109.109,0,0,1,.031-.08.112.112,0,0,1,.087-.033.115.115,0,0,1,.087.033.113.113,0,0,1,.031.08.11.11,0,0,1-.031.079.117.117,0,0,1-.087.031.131.131,0,0,1-.05-.008C173.872,90.482,173.869,90.468,173.869,90.452Z" fill="#fff"/>
    <path d="M174.71,90.119h-.437v-.164h.437Z" fill="#fff"/>
    <path d="M175.271,90.119h-.438v-.164h.438Z" fill="#fff"/>
    <path d="M173.136,92.17H172.7v-.164h.437Z" fill="#fff"/>
    <path d="M173.7,92.17h-.438v-.164h.438Z" fill="#fff"/>
    <path d="M173.869,91.8a.112.112,0,0,1,.031-.081.115.115,0,0,1,.087-.032.108.108,0,0,1,.118.113.11.11,0,0,1-.031.079.117.117,0,0,1-.087.031.154.154,0,0,1-.05-.008C173.872,91.825,173.869,91.811,173.869,91.8Zm0,.708a.109.109,0,0,1,.031-.08.111.111,0,0,1,.087-.032.114.114,0,0,1,.087.032.119.119,0,0,1,0,.16.121.121,0,0,1-.087.031.131.131,0,0,1-.05-.009C173.872,92.534,173.869,92.519,173.869,92.5Z" fill="#fff"/>
    <path d="M174.71,92.17h-.437v-.164h.437Z" fill="#fff"/>
    <path d="M175.271,92.17h-.438v-.164h.438Z" fill="#fff"/>
    <path d="M118.876,182.327a82.091,82.091,0,1,1,82.091-82.091A82.184,82.184,0,0,1,118.876,182.327Zm0-163.432a81.341,81.341,0,1,0,81.341,81.341A81.432,81.432,0,0,0,118.876,18.9Z" fill="#fff"/>
  </g>
</svg>
